<svg xmlns="http://www.w3.org/2000/svg" xmlns:xlink="http://www.w3.org/1999/xlink" width="1920" zoomAndPan="magnify" viewBox="0 0 1440 809.999993" height="1080" preserveAspectRatio="xMidYMid meet" version="1.0"><defs><clipPath id="3594eeb95e"><path d="M 1236.582031 289.617188 L 1440 289.617188 L 1440 639 L 1236.582031 639 Z M 1236.582031 289.617188 " clip-rule="nonzero"/></clipPath><clipPath id="0a09d5bc43"><path d="M 1120 741 L 1370.640625 741 L 1370.640625 802.175781 L 1120 802.175781 Z M 1120 741 " clip-rule="nonzero"/></clipPath></defs><rect x="-144" width="1728" fill="#ffffff" y="-80.999999" height="971.999992" fill-opacity="1"/><rect x="-144" width="1728" fill="#ffffff" y="-80.999999" height="971.999992" fill-opacity="1"/><path fill="#f4b426" d="M 1247.726562 104.644531 C 1247.691406 104.589844 1247.671875 104.550781 1247.65625 104.515625 C 1247.652344 104.511719 1247.636719 104.484375 1247.636719 104.476562 C 1246.074219 101.820312 1244.722656 98.792969 1243.671875 95.746094 C 1243.46875 95.195312 1243.292969 94.65625 1243.121094 94.109375 C 1242.058594 90.765625 1238.769531 85.90625 1234.742188 81.746094 C 1234.667969 80.660156 1229.96875 15.109375 1183.683594 -4.0625 C 1183.667969 -4.0625 1183.667969 -4.074219 1183.664062 -4.074219 C 1174.550781 -7.359375 1165.410156 -8.886719 1157.023438 -9.230469 C 1122.453125 -10.621094 1092.714844 3.210938 1077.5 21.527344 C 1076.800781 22.367188 1076.117188 23.292969 1075.433594 24.292969 L 1075.445312 24.304688 C 1075.445312 24.304688 1089.945312 12.890625 1107.234375 18.769531 C 1122.152344 23.828125 1117.257812 65.417969 1109.402344 85.183594 C 1106.53125 85.476562 1103.65625 85.828125 1100.828125 86.1875 C 1115.792969 50.503906 1109.28125 27.480469 1103.085938 22.917969 C 1096.519531 18.070312 1073.699219 27.117188 1073.257812 27.882812 C 1062.179688 47.714844 1054.761719 86.757812 1053.007812 96.636719 C 1033.867188 102.652344 1012.261719 111.402344 1026.671875 117.609375 C 1038.488281 122.703125 1060.527344 125.785156 1073.808594 127.253906 C 1073.746094 125.722656 1073.691406 124.21875 1073.640625 122.785156 C 1057.863281 120.597656 1032.867188 116.84375 1028.746094 114.503906 C 1023.414062 111.476562 1050.148438 103.964844 1069.203125 101.664062 C 1071.941406 101.335938 1074.511719 101.109375 1076.816406 101.019531 C 1093.464844 100.390625 1132.996094 99.765625 1151.980469 100.691406 C 1153.882812 100.792969 1155.578125 100.898438 1157.023438 101.019531 C 1157.96875 101.109375 1158.917969 101.179688 1159.855469 101.242188 C 1165.796875 101.65625 1171.765625 101.71875 1177.511719 101.449219 C 1186.222656 101.054688 1194.417969 99.871094 1201.285156 97.914062 C 1211.597656 94.964844 1228.925781 94.085938 1237.902344 101.449219 C 1239.453125 102.730469 1240.761719 104.253906 1241.742188 106.074219 C 1242.261719 107.027344 1242.761719 107.84375 1243.273438 108.542969 C 1243.273438 108.542969 1249 121.824219 1233.667969 127.503906 C 1233.183594 127.691406 1232.671875 127.859375 1232.144531 128.011719 C 1232.214844 128.882812 1232.277344 129.742188 1232.316406 130.574219 C 1232.382812 132.027344 1232.390625 133.402344 1232.371094 134.710938 C 1239.199219 131.609375 1243.449219 127.972656 1246.011719 124.308594 C 1247.1875 122.054688 1248.066406 120.289062 1248.710938 118.910156 C 1249.304688 117.054688 1249.539062 115.261719 1249.570312 113.605469 C 1249.664062 108.964844 1248.109375 105.429688 1247.726562 104.644531 Z M 1164.742188 86.570312 C 1157.324219 86.1875 1151.363281 85.128906 1151.363281 85.128906 C 1145.625 84.121094 1138.734375 83.753906 1131.328125 83.832031 C 1132.195312 78.980469 1133.996094 70.972656 1136.621094 70.257812 C 1140.425781 69.222656 1157.023438 71.925781 1161.515625 73.519531 C 1164.480469 74.558594 1165.199219 80.398438 1164.742188 86.570312 " fill-opacity="1" fill-rule="nonzero"/><g clip-path="url(#3594eeb95e)"><path fill="#7dc5dd" d="M 1430.382812 445.386719 C 1406.054688 319.011719 1343.554688 289.835938 1343.554688 289.835938 C 1328.578125 316.621094 1307.664062 387.28125 1305.871094 401.195312 C 1304.730469 410 1305.625 417.253906 1308.113281 426.363281 C 1308.113281 426.386719 1308.121094 426.433594 1308.132812 426.476562 C 1310.1875 433.957031 1313.316406 442.703125 1317.277344 454.59375 C 1323.527344 473.332031 1324.578125 500.929688 1324.460938 519.296875 C 1356.628906 506.453125 1385.609375 523.921875 1386.925781 524.726562 C 1367.894531 515.472656 1322.617188 538.894531 1322.617188 538.894531 C 1319.863281 541.746094 1313.371094 543.867188 1305.410156 545.277344 C 1289.523438 548.066406 1267.785156 547.960938 1258.15625 544.800781 C 1242.550781 539.660156 1237.144531 546.007812 1236.917969 546.296875 C 1236.902344 546.300781 1236.902344 546.300781 1236.902344 546.300781 C 1236.902344 546.300781 1252.976562 557.242188 1252.976562 581.871094 C 1252.976562 598.640625 1255.867188 612.902344 1253.203125 623.554688 C 1251.949219 628.539062 1249.476562 632.742188 1244.933594 636.042969 C 1243.449219 637.125 1242.191406 637.707031 1241.125 637.882812 C 1241.125 637.882812 1265.652344 638.585938 1296.539062 638.367188 C 1316.34375 638.222656 1338.796875 637.695312 1359.066406 636.359375 C 1361.40625 636.203125 1363.710938 636.035156 1365.980469 635.867188 L 1365.980469 635.863281 C 1445.269531 628.425781 1439.683594 571.242188 1440.199219 524.0625 C 1440.394531 505.742188 1436.300781 476.398438 1430.382812 445.386719 " fill-opacity="1" fill-rule="nonzero"/></g><path fill="#7dc5dd" d="M 1268.609375 236.148438 C 1262.871094 220.054688 1258.230469 210.605469 1251.417969 208.335938 C 1243.636719 205.746094 1232.382812 206.875 1232.382812 206.875 C 1232.382812 206.875 1231.949219 206.90625 1231.230469 207.023438 C 1232.164062 209.40625 1233.128906 211.304688 1234.070312 212.476562 C 1234.082031 212.484375 1234.082031 212.5 1234.097656 212.503906 C 1234.101562 212.503906 1234.101562 212.519531 1234.101562 212.523438 C 1234.230469 212.714844 1234.511719 213.285156 1234.695312 214.238281 C 1235.507812 218.308594 1234.863281 229.503906 1215.109375 249.035156 C 1210.140625 253.945312 1205.113281 259.355469 1200.246094 265.085938 C 1200.714844 264.664062 1209.773438 256.523438 1213.8125 265.105469 C 1216.605469 271.039062 1216.585938 280.972656 1220.144531 289.835938 C 1222.050781 286.207031 1223.75 283.191406 1225.226562 280.917969 C 1242.878906 253.632812 1248.375 235.730469 1268.609375 236.148438 " fill-opacity="1" fill-rule="nonzero"/><path fill="#7dc5dd" d="M 1193.8125 272.945312 C 1185.074219 284.074219 1177.136719 296.058594 1171.296875 307.890625 C 1170.511719 309.472656 1169.757812 311.058594 1169.046875 312.648438 C 1164.933594 321.863281 1162.191406 330.894531 1161.433594 339.246094 C 1161.433594 339.246094 1159.488281 359.167969 1163.3125 423.085938 C 1179.246094 382.757812 1201.804688 327.132812 1216.433594 297.199219 C 1212.140625 271.933594 1193.8125 272.945312 1193.8125 272.945312 " fill-opacity="1" fill-rule="nonzero"/><path fill="#dddc17" d="M 1388.066406 273.234375 C 1388.054688 273.226562 1388.046875 273.226562 1388.035156 273.214844 C 1386.585938 271.957031 1385.121094 271.058594 1383.664062 270.550781 C 1364.972656 263.984375 1350.753906 280.039062 1350.027344 280.890625 C 1364.507812 268.507812 1384.71875 289.234375 1398.707031 322.910156 C 1403.335938 334.035156 1409.476562 354.585938 1415.628906 378.839844 C 1419.359375 341.238281 1403.890625 286.835938 1388.066406 273.234375 " fill-opacity="1" fill-rule="nonzero"/><path fill="#dddc17" d="M 1308.132812 426.476562 C 1308.828125 430.207031 1320.546875 494.753906 1305.410156 545.277344 C 1313.371094 543.867188 1319.863281 541.746094 1322.617188 538.894531 C 1323.480469 538 1323.972656 537.027344 1324.027344 535.988281 C 1324.171875 532.8125 1324.414062 526.832031 1324.460938 519.296875 C 1324.578125 500.929688 1323.527344 473.332031 1317.277344 454.59375 C 1313.316406 442.703125 1310.1875 433.957031 1308.132812 426.476562 " fill-opacity="1" fill-rule="nonzero"/><path fill="#dddc17" d="M 1241.125 637.882812 C 1235.734375 638.800781 1235.203125 629.507812 1235.695312 621.613281 C 1229.167969 620.835938 1225.226562 620.300781 1225.226562 620.300781 L 1225.214844 620.300781 C 1220.265625 626.835938 1215.148438 631.058594 1211.304688 632.238281 C 1203.683594 634.59375 1164.171875 620.75 1146.269531 610.601562 C 1144.328125 609.5 1142.648438 608.441406 1141.28125 607.460938 C 1134.640625 607.824219 1125.878906 608.125 1115.808594 608.332031 C 1112.269531 608.402344 1108.578125 608.472656 1104.75 608.527344 C 1088.515625 608.757812 1069.96875 608.808594 1051.734375 608.609375 C 1051.308594 617.089844 1050.765625 628.351562 1050.242188 641.105469 C 1064.460938 641.726562 1087.394531 641.761719 1106.777344 637.367188 C 1109.972656 636.632812 1113.070312 635.796875 1116.007812 634.816406 C 1116.03125 636.9375 1116.0625 639.144531 1116.082031 641.417969 C 1122.070312 641.800781 1220.28125 647.773438 1296.539062 638.367188 C 1265.652344 638.585938 1241.125 637.882812 1241.125 637.882812 " fill-opacity="1" fill-rule="nonzero"/><path fill="#dddc17" d="M 1144.574219 471.183594 C 1144.574219 471.183594 1148.449219 461.042969 1154.558594 445.386719 C 1144.535156 408.214844 1144.046875 327.527344 1144.339844 292.832031 C 1144.339844 292.832031 1132.585938 439.078125 1138.351562 470.425781 C 1140.949219 470.621094 1143.046875 470.875 1144.574219 471.183594 " fill-opacity="1" fill-rule="nonzero"/><path fill="#dddc17" d="M 1119.957031 752.28125 C 1116.695312 752.683594 1113.429688 753.003906 1110.175781 753.246094 C 1109.476562 772.160156 1107.609375 786.320312 1103.863281 790.484375 C 1110.773438 789.773438 1117.742188 788.882812 1124.328125 787.988281 C 1122.601562 780.769531 1121.21875 768.898438 1120.132812 754.542969 C 1120.070312 753.789062 1120.003906 753.039062 1119.957031 752.28125 " fill-opacity="1" fill-rule="nonzero"/><path fill="#dddc17" d="M 1117.773438 711.167969 C 1117.320312 699.394531 1116.976562 687.402344 1116.707031 675.859375 C 1116.675781 674.597656 1116.652344 673.332031 1116.621094 672.074219 C 1114.042969 673.082031 1111.472656 673.960938 1108.90625 674.734375 C 1109.511719 687.289062 1109.992188 700.308594 1110.277344 712.898438 C 1112.753906 712.390625 1115.265625 711.820312 1117.773438 711.167969 " fill-opacity="1" fill-rule="nonzero"/><path fill="#ebebee" d="M 1366.800781 702.09375 C 1269.15625 727.246094 1117.902344 714.34375 1117.902344 714.34375 C 1117.855469 713.28125 1117.816406 712.222656 1117.773438 711.167969 C 1115.265625 711.820312 1112.753906 712.390625 1110.277344 712.898438 C 1084.179688 718.207031 1060.023438 715.914062 1048.214844 714.132812 C 1048.082031 727.628906 1048.140625 740.429688 1048.53125 751.386719 C 1060.65625 752.878906 1085.125 755.160156 1110.175781 753.246094 C 1113.429688 753.003906 1116.695312 752.683594 1119.957031 752.28125 C 1120.003906 753.039062 1120.070312 753.789062 1120.132812 754.542969 C 1121.03125 754.777344 1222.878906 781.109375 1369.605469 741.140625 C 1369.035156 729.476562 1368.066406 716.074219 1366.800781 702.09375 " fill-opacity="1" fill-rule="nonzero"/><path fill="#ebebee" d="M 1144.917969 478.441406 C 1146.964844 480.070312 1157.230469 501.410156 1165.339844 518.691406 C 1171.019531 530.773438 1175.632812 540.875 1175.632812 540.875 C 1177.6875 540.589844 1179.722656 540.28125 1181.667969 539.960938 C 1180.179688 536.304688 1178.734375 532.847656 1177.34375 529.570312 C 1175.59375 525.445312 1173.933594 521.605469 1172.355469 518.046875 C 1150.542969 468.847656 1144.574219 471.183594 1144.574219 471.183594 C 1143.046875 470.875 1140.949219 470.621094 1138.351562 470.425781 C 1121.976562 469.152344 1085.910156 470.003906 1046.933594 471.621094 C 1030.511719 472.304688 1013.570312 473.125 997.371094 473.96875 C 982.972656 474.742188 969.15625 475.527344 956.816406 476.265625 C 952.746094 476.511719 948.859375 476.753906 945.144531 476.984375 C 938.667969 477.386719 932.765625 477.769531 927.617188 478.117188 C 915.40625 478.949219 907.355469 479.574219 905.664062 479.820312 C 896.332031 481.210938 897.707031 488.464844 897.707031 488.464844 C 901.398438 489.695312 922.871094 488.386719 948.085938 486.332031 C 965.859375 484.890625 985.480469 483.078125 1002.042969 481.511719 C 1003.125 481.40625 1004.191406 481.3125 1005.242188 481.210938 C 1012.625 480.511719 1028.582031 479.707031 1047.167969 479.023438 C 1088.375 477.5 1142.542969 476.535156 1144.917969 478.441406 " fill-opacity="1" fill-rule="nonzero"/><path fill="#ebebee" d="M 1116.007812 634.816406 C 1113.070312 635.796875 1109.972656 636.632812 1106.777344 637.367188 C 1087.394531 641.761719 1064.460938 641.726562 1050.242188 641.105469 C 1049.792969 652.128906 1049.347656 664.257812 1048.988281 676.671875 C 1062.355469 679.449219 1084.984375 681.925781 1108.90625 674.734375 C 1111.472656 673.960938 1114.042969 673.082031 1116.621094 672.074219 C 1116.652344 673.332031 1116.675781 674.597656 1116.707031 675.859375 C 1135.015625 678.0625 1229.382812 687.328125 1362.859375 664.726562 C 1361.675781 654.933594 1360.402344 645.359375 1359.066406 636.359375 C 1338.796875 637.695312 1316.34375 638.222656 1296.539062 638.367188 C 1220.28125 647.773438 1122.070312 641.800781 1116.082031 641.417969 C 1116.0625 639.144531 1116.03125 636.9375 1116.007812 634.816406 " fill-opacity="1" fill-rule="nonzero"/><path fill="#dd8f8c" d="M 1108.867188 215.089844 C 1112.402344 215.261719 1113.457031 216.289062 1117.265625 213.34375 C 1121.066406 210.410156 1126.429688 212.667969 1136.800781 214.042969 C 1144.28125 215.035156 1145.28125 215.941406 1144.039062 217.089844 L 1144.027344 217.089844 C 1143.542969 217.539062 1142.722656 218 1141.808594 218.53125 C 1138.535156 220.4375 1132.996094 225.96875 1130.449219 227.699219 C 1128.390625 229.09375 1119.75 231.183594 1114.15625 230.90625 C 1112.847656 230.839844 1111.71875 230.652344 1110.867188 230.289062 C 1110.804688 230.269531 1110.738281 230.234375 1110.691406 230.210938 C 1107.992188 228.921875 1108.847656 225.894531 1109.800781 223.894531 C 1105.382812 220.699219 1105.746094 214.921875 1108.867188 215.089844 " fill-opacity="1" fill-rule="nonzero"/><path fill="#dd9c26" d="M 1243.273438 108.542969 C 1242.761719 107.84375 1242.261719 107.027344 1241.742188 106.074219 C 1240.761719 104.253906 1239.453125 102.730469 1237.902344 101.449219 L 1237.890625 101.457031 C 1237.890625 101.457031 1240.703125 110.699219 1233.667969 127.503906 C 1249 121.824219 1243.273438 108.542969 1243.273438 108.542969 " fill-opacity="1" fill-rule="nonzero"/><path fill="#dd9c26" d="M 1243.121094 94.109375 C 1243.292969 94.65625 1243.46875 95.195312 1243.671875 95.746094 C 1240.164062 33.660156 1212.101562 6.199219 1183.683594 -4.0625 C 1229.96875 15.109375 1234.667969 80.660156 1234.742188 81.746094 C 1238.769531 85.90625 1242.058594 90.765625 1243.121094 94.109375 " fill-opacity="1" fill-rule="nonzero"/><path fill="#dd9c26" d="M 1161.515625 73.519531 C 1157.023438 71.925781 1140.425781 69.222656 1136.621094 70.257812 C 1133.996094 70.972656 1132.195312 78.980469 1131.328125 83.832031 C 1138.734375 83.753906 1145.625 84.121094 1151.363281 85.128906 C 1151.363281 85.128906 1157.324219 86.1875 1164.742188 86.570312 C 1165.199219 80.398438 1164.480469 74.558594 1161.515625 73.519531 " fill-opacity="1" fill-rule="nonzero"/><path fill="#dd9c26" d="M 1107.234375 18.769531 C 1089.945312 12.890625 1075.445312 24.304688 1075.445312 24.304688 L 1075.433594 24.292969 C 1074.699219 25.40625 1073.960938 26.605469 1073.257812 27.882812 C 1073.699219 27.117188 1096.519531 18.070312 1103.085938 22.917969 C 1109.28125 27.480469 1115.792969 50.503906 1100.828125 86.1875 C 1103.65625 85.828125 1106.53125 85.476562 1109.402344 85.183594 C 1117.257812 65.417969 1122.152344 23.828125 1107.234375 18.769531 " fill-opacity="1" fill-rule="nonzero"/><path fill="#dd9c26" d="M 1073.257812 119.429688 L 1069.375 119.429688 C 1069.375 119.429688 1068.082031 108.269531 1069.203125 101.664062 C 1050.148438 103.964844 1023.414062 111.476562 1028.746094 114.503906 C 1032.867188 116.84375 1057.863281 120.597656 1073.640625 122.785156 C 1073.597656 121.582031 1073.566406 120.421875 1073.523438 119.335938 C 1073.351562 119.394531 1073.257812 119.429688 1073.257812 119.429688 " fill-opacity="1" fill-rule="nonzero"/><path fill="#eeeb25" d="M 1324.027344 252.925781 C 1305.871094 248.777344 1301.207031 241.515625 1275.292969 236.851562 C 1272.886719 236.421875 1270.679688 236.1875 1268.609375 236.148438 C 1248.375 235.730469 1242.878906 253.632812 1225.226562 280.917969 C 1223.75 283.191406 1222.050781 286.207031 1220.144531 289.835938 C 1218.96875 292.066406 1217.734375 294.523438 1216.433594 297.199219 C 1201.804688 327.132812 1179.246094 382.757812 1163.3125 423.085938 C 1160.085938 431.265625 1157.128906 438.8125 1154.558594 445.386719 C 1148.449219 461.042969 1144.574219 471.183594 1144.574219 471.183594 C 1144.574219 471.183594 1150.542969 468.847656 1172.355469 518.046875 C 1182.644531 517.34375 1192.96875 517.726562 1198.855469 520.953125 C 1206.027344 524.878906 1217.40625 533.6875 1226.550781 544.800781 C 1226.550781 544.800781 1230.519531 545.445312 1236.917969 546.296875 C 1237.144531 546.007812 1242.550781 539.660156 1258.15625 544.800781 C 1267.785156 547.960938 1289.523438 548.066406 1305.410156 545.277344 C 1320.546875 494.753906 1308.828125 430.207031 1308.132812 426.476562 C 1308.121094 426.433594 1308.113281 426.386719 1308.113281 426.363281 C 1305.625 417.253906 1304.730469 410 1305.871094 401.195312 C 1307.664062 387.28125 1328.578125 316.621094 1343.554688 289.835938 C 1345.878906 285.691406 1348.0625 282.589844 1349.996094 280.917969 C 1349.996094 280.917969 1350.007812 280.910156 1350.027344 280.890625 C 1350.753906 280.039062 1364.972656 263.984375 1383.664062 270.550781 C 1385.121094 271.058594 1386.585938 271.957031 1388.035156 273.214844 C 1380.253906 263.394531 1342.160156 257.074219 1324.027344 252.925781 " fill-opacity="1" fill-rule="nonzero"/><g clip-path="url(#0a09d5bc43)"><path fill="#eeeb25" d="M 1120.132812 754.542969 C 1121.21875 768.898438 1122.601562 780.769531 1124.328125 787.988281 C 1124.703125 789.535156 1125.085938 790.863281 1125.488281 791.960938 C 1135.242188 818.53125 1359.292969 785.351562 1367.589844 781.203125 C 1370.277344 779.863281 1370.691406 763.75 1369.605469 741.140625 C 1222.878906 781.109375 1121.03125 754.777344 1120.132812 754.542969 " fill-opacity="1" fill-rule="nonzero"/></g><path fill="#eeeb25" d="M 1144.339844 292.832031 C 1140.574219 289.09375 1136.941406 284.992188 1133.855469 280.671875 C 1110.308594 290.542969 1080.949219 305.9375 1080.246094 306.3125 C 1080.238281 306.3125 1080.238281 306.3125 1080.238281 306.3125 C 1079.808594 307.796875 1079.324219 309.441406 1078.800781 311.246094 C 1069.417969 343.847656 1046.960938 426.476562 1046.933594 471.621094 C 1085.910156 470.003906 1121.976562 469.152344 1138.351562 470.425781 C 1132.585938 439.078125 1144.339844 292.832031 1144.339844 292.832031 " fill-opacity="1" fill-rule="nonzero"/><path fill="#eeeb25" d="M 1366.800781 702.09375 C 1365.691406 689.828125 1364.355469 677.117188 1362.859375 664.726562 C 1229.382812 687.328125 1135.015625 678.0625 1116.707031 675.859375 C 1116.976562 687.402344 1117.320312 699.394531 1117.773438 711.167969 C 1117.816406 712.222656 1117.855469 713.28125 1117.902344 714.34375 C 1117.902344 714.34375 1269.15625 727.246094 1366.800781 702.09375 " fill-opacity="1" fill-rule="nonzero"/><path fill="#eeeb25" d="M 1048.53125 751.386719 C 1049.082031 767.804688 1050.324219 780.0625 1052.605469 784.320312 C 1057.40625 793.257812 1080.285156 792.921875 1103.863281 790.484375 C 1107.609375 786.320312 1109.476562 772.160156 1110.175781 753.246094 C 1085.125 755.160156 1060.65625 752.878906 1048.53125 751.386719 " fill-opacity="1" fill-rule="nonzero"/><path fill="#eeeb25" d="M 1048.988281 676.671875 C 1048.609375 689.15625 1048.328125 701.925781 1048.214844 714.132812 C 1060.023438 715.914062 1084.179688 718.207031 1110.277344 712.898438 C 1109.992188 700.308594 1109.511719 687.289062 1108.90625 674.734375 C 1084.984375 681.925781 1062.355469 679.449219 1048.988281 676.671875 " fill-opacity="1" fill-rule="nonzero"/><path fill="#66b2c4" d="M 1430.382812 445.386719 C 1426.101562 422.898438 1420.863281 399.523438 1415.628906 378.839844 C 1409.476562 354.585938 1403.335938 334.035156 1398.707031 322.910156 C 1384.71875 289.234375 1364.507812 268.507812 1350.027344 280.890625 C 1350.007812 280.910156 1349.996094 280.917969 1349.996094 280.917969 C 1348.0625 282.589844 1345.878906 285.691406 1343.554688 289.835938 C 1343.554688 289.835938 1406.054688 319.011719 1430.382812 445.386719 " fill-opacity="1" fill-rule="nonzero"/><path fill="#66b2c4" d="M 1324.460938 519.296875 C 1324.414062 526.832031 1324.171875 532.8125 1324.027344 535.988281 C 1323.972656 537.027344 1323.480469 538 1322.617188 538.894531 C 1322.617188 538.894531 1367.894531 515.472656 1386.925781 524.726562 C 1385.609375 523.921875 1356.628906 506.453125 1324.460938 519.296875 " fill-opacity="1" fill-rule="nonzero"/><path fill="#66b2c4" d="M 1241.125 637.882812 C 1242.191406 637.707031 1243.449219 637.125 1244.933594 636.042969 C 1249.476562 632.742188 1251.949219 628.539062 1253.203125 623.554688 C 1246.363281 622.855469 1240.359375 622.171875 1235.695312 621.613281 C 1235.203125 629.507812 1235.734375 638.800781 1241.125 637.882812 " fill-opacity="1" fill-rule="nonzero"/><path fill="#66b2c4" d="M 1200.246094 265.085938 C 1200.238281 265.09375 1200.226562 265.09375 1200.226562 265.105469 C 1198.058594 267.65625 1195.914062 270.28125 1193.8125 272.945312 C 1193.8125 272.945312 1212.140625 271.933594 1216.433594 297.199219 C 1217.734375 294.523438 1218.96875 292.066406 1220.144531 289.835938 C 1216.585938 280.972656 1216.605469 271.039062 1213.8125 265.105469 C 1209.773438 256.523438 1200.714844 264.664062 1200.246094 265.085938 " fill-opacity="1" fill-rule="nonzero"/><path fill="#66b2c4" d="M 1161.132812 296.078125 C 1156.203125 288.953125 1152.410156 281.21875 1149.671875 274.695312 C 1148.777344 272.5625 1148 270.5625 1147.347656 268.757812 C 1140.789062 269.746094 1133.53125 270.269531 1127.515625 269.589844 C 1129.121094 273.402344 1131.304688 277.113281 1133.855469 280.671875 C 1136.941406 284.992188 1140.574219 289.09375 1144.339844 292.832031 C 1144.046875 327.527344 1144.535156 408.214844 1154.558594 445.386719 C 1157.128906 438.8125 1160.085938 431.265625 1163.3125 423.085938 C 1159.488281 359.167969 1161.433594 339.246094 1161.433594 339.246094 C 1162.191406 330.894531 1164.933594 321.863281 1169.046875 312.648438 C 1169.757812 311.058594 1170.511719 309.472656 1171.296875 307.890625 C 1167.488281 304.433594 1164.113281 300.375 1161.132812 296.078125 " fill-opacity="1" fill-rule="nonzero"/><path fill="#66b2c4" d="M 1050.1875 342.097656 C 1043.320312 360.214844 1020.292969 447.238281 1008.113281 461.769531 C 1002.386719 459.21875 997.035156 455.898438 993.398438 452.257812 C 985.609375 444.476562 980.554688 442.40625 980.246094 442.292969 C 981.097656 444.476562 982.246094 446.972656 983.59375 449.667969 C 983.59375 449.667969 985.722656 466.015625 956.816406 476.265625 C 969.15625 475.527344 982.972656 474.742188 997.371094 473.96875 C 1013.570312 473.125 1030.511719 472.304688 1046.933594 471.621094 C 1046.960938 426.476562 1069.417969 343.847656 1078.800781 311.246094 C 1078.800781 311.246094 1057.445312 322.910156 1050.1875 342.097656 " fill-opacity="1" fill-rule="nonzero"/><path fill="#66b2c4" d="M 927.617188 478.117188 C 932.765625 477.769531 938.667969 477.386719 945.144531 476.984375 C 943.402344 471.949219 941.519531 467.347656 939.75 463.3125 C 935.976562 466.601562 930.15625 472.304688 927.617188 478.117188 " fill-opacity="1" fill-rule="nonzero"/><path fill="#ecc2a9" d="M 1226.550781 544.800781 C 1217.40625 533.6875 1206.027344 524.878906 1198.855469 520.953125 C 1192.96875 517.726562 1182.644531 517.34375 1172.355469 518.046875 C 1173.933594 521.605469 1175.59375 525.445312 1177.34375 529.570312 C 1182.957031 530.257812 1193.410156 532.242188 1193.8125 537.660156 C 1190.496094 538.363281 1186.273438 539.203125 1181.667969 539.960938 C 1179.722656 540.28125 1177.6875 540.589844 1175.632812 540.875 C 1166.960938 542.039062 1157.722656 542.707031 1150.800781 541.691406 C 1133.167969 539.101562 1121.238281 541.691406 1117.605469 547.914062 C 1115.566406 551.429688 1118.628906 554.765625 1127.609375 557.671875 C 1134.546875 559.90625 1145.003906 561.890625 1159.359375 563.460938 C 1191.558594 567.011719 1206.65625 564.121094 1212.644531 563.496094 C 1196.042969 569.226562 1146.460938 567.925781 1134.585938 563.722656 C 1119.929688 558.535156 1103.863281 558.269531 1103.863281 558.269531 C 1102.882812 558.726562 1102.019531 559.308594 1101.351562 560.011719 C 1096.191406 565.488281 1097.433594 572.289062 1114.277344 577.367188 C 1116.582031 578.074219 1119.183594 578.738281 1122.097656 579.363281 C 1144.460938 584.152344 1177.722656 591.003906 1199.015625 589.84375 C 1172.53125 593 1114.269531 582.691406 1109.933594 581.910156 C 1109.113281 584.214844 1110.101562 586.957031 1115.191406 589.976562 C 1118.992188 592.226562 1126.03125 594.835938 1134.613281 597.414062 C 1157.667969 604.320312 1191.785156 610.902344 1203.480469 609.171875 C 1192.914062 613.609375 1169.214844 609.285156 1158.0625 607.535156 C 1144.839844 605.460938 1146.269531 610.601562 1146.269531 610.601562 C 1164.171875 620.75 1203.683594 634.59375 1211.304688 632.238281 C 1215.148438 631.058594 1220.265625 626.835938 1225.214844 620.300781 C 1231.820312 611.574219 1238.132812 598.730469 1240.703125 583.507812 C 1242.972656 570.039062 1235.941406 556.207031 1226.550781 544.800781 " fill-opacity="1" fill-rule="nonzero"/><path fill="#ecc2a9" d="M 1207 166.800781 C 1207.914062 168.367188 1209.085938 169.703125 1210.617188 170.667969 C 1211.726562 171.367188 1212.941406 171.714844 1214.191406 171.769531 C 1212.96875 193.171875 1205.269531 280.628906 1161.132812 296.078125 C 1164.113281 300.375 1167.488281 304.433594 1171.296875 307.890625 C 1177.136719 296.058594 1185.074219 284.074219 1193.8125 272.945312 C 1195.914062 270.28125 1198.058594 267.65625 1200.226562 265.105469 C 1200.226562 265.09375 1200.238281 265.09375 1200.246094 265.085938 C 1205.113281 259.355469 1210.140625 253.945312 1215.109375 249.035156 C 1234.863281 229.503906 1235.507812 218.308594 1234.695312 214.238281 C 1234.484375 213.679688 1234.289062 213.109375 1234.101562 212.523438 C 1234.101562 212.519531 1234.101562 212.503906 1234.097656 212.503906 C 1234.082031 212.5 1234.082031 212.484375 1234.070312 212.476562 C 1233.128906 211.304688 1232.164062 209.40625 1231.230469 207.023438 C 1227.132812 196.734375 1223.289062 177.472656 1221.730469 169.089844 C 1223.191406 167.949219 1224.429688 166.539062 1225.226562 165.050781 C 1225.75 164.050781 1226.085938 163.023438 1226.179688 162.023438 C 1226.699219 156.152344 1228.773438 152.347656 1230.15625 148.542969 C 1231.019531 146.160156 1232.238281 141.367188 1232.371094 134.710938 C 1232.390625 133.402344 1232.382812 132.027344 1232.316406 130.574219 C 1232.277344 129.742188 1232.214844 128.882812 1232.144531 128.011719 C 1231.953125 125.824219 1231.644531 123.507812 1231.1875 121.066406 C 1229.324219 111.101562 1224.125 109.402344 1218.917969 110.582031 C 1216.894531 111.039062 1214.875 111.933594 1213.035156 112.945312 C 1206.46875 116.578125 1206.992188 123.488281 1204.046875 130.234375 C 1201.113281 136.972656 1202.488281 150.617188 1202.488281 150.617188 C 1203.785156 155.640625 1204.300781 162.21875 1207 166.800781 Z M 1212.175781 120.550781 C 1216.492188 116.578125 1223.234375 114.328125 1226.007812 118.476562 C 1228.773438 122.625 1223.589844 120.898438 1220.125 120.898438 C 1216.667969 120.898438 1210.960938 124.695312 1213.734375 128.675781 C 1216.492188 132.648438 1222.890625 132.992188 1223.933594 140.246094 C 1224.964844 147.507812 1220.300781 146.984375 1219.957031 149.058594 C 1219.601562 151.132812 1217.707031 154.761719 1214.769531 156.496094 C 1214.769531 156.496094 1209.753906 159.265625 1211.304688 153.5625 C 1212.859375 147.855469 1214.511719 147.328125 1211 141.023438 C 1207.511719 134.722656 1207.851562 124.527344 1212.175781 120.550781 " fill-opacity="1" fill-rule="nonzero"/><path fill="#ecc2a9" d="M 1111.042969 196.933594 C 1114.671875 195.554688 1117.789062 192.605469 1120.023438 194.863281 C 1121.519531 196.351562 1123.757812 197.148438 1125.90625 196.613281 C 1127.007812 196.351562 1128.085938 195.742188 1129.019531 194.679688 C 1131.785156 191.574219 1130.054688 186.386719 1127.980469 183.109375 C 1125.90625 179.820312 1117.984375 179.304688 1113.035156 183.628906 C 1113.035156 183.628906 1116.574219 178.089844 1121.9375 178.089844 C 1127.289062 178.089844 1136.070312 184.84375 1138.15625 193.480469 C 1139.011719 196.976562 1140.582031 200.511719 1142.160156 203.5 C 1143.835938 204.800781 1145.441406 206.371094 1146.832031 208.222656 C 1146.832031 208.222656 1146.832031 208.222656 1146.839844 208.238281 C 1147.316406 208.503906 1160.535156 215.875 1167.523438 204.4375 C 1167.65625 204.089844 1167.792969 203.734375 1167.917969 203.386719 C 1169.121094 199.960938 1171.632812 195.59375 1174.527344 190.960938 C 1174.074219 185.867188 1172.585938 182.675781 1172.585938 182.675781 C 1182.066406 172.433594 1180.664062 145.984375 1180.621094 145.328125 C 1180.621094 145.320312 1180.621094 145.320312 1180.621094 145.320312 C 1180.257812 144.675781 1179.917969 143.992188 1179.589844 143.273438 C 1176.640625 136.929688 1174.164062 130.769531 1170.109375 125.835938 C 1169.214844 124.757812 1168.234375 123.730469 1167.167969 122.777344 C 1152 111.34375 1106.316406 122.265625 1084.757812 128.347656 C 1079.367188 129.859375 1075.480469 131.074219 1073.960938 131.5625 C 1074.359375 141.214844 1074.875 151.085938 1075.445312 153.902344 C 1075.792969 152.21875 1078.714844 151.1875 1085.972656 151.433594 C 1093.238281 151.703125 1097.40625 152.769531 1097.40625 152.769531 C 1097.820312 154.039062 1098.753906 157.21875 1099.3125 161.273438 C 1099.601562 163.378906 1099.796875 165.714844 1099.769531 168.136719 C 1099.769531 169.085938 1099.730469 170.042969 1099.636719 171.011719 C 1098.761719 180.6875 1091.820312 194.164062 1098.492188 198.828125 C 1099.707031 199.679688 1100.777344 200.195312 1101.730469 200.480469 C 1106.027344 201.734375 1108.074219 198.0625 1111.042969 196.933594 Z M 1109.132812 147.683594 C 1115.015625 143.019531 1127.980469 137.140625 1132.128906 136.796875 C 1136.277344 136.453125 1153.957031 140.207031 1157.203125 143.191406 C 1161.070312 146.75 1149.390625 145.039062 1142.953125 144.144531 C 1148.71875 147.058594 1150.355469 151.863281 1150.449219 152.171875 C 1149.980469 152.039062 1148.8125 152.117188 1147.273438 152.339844 C 1143.527344 163.300781 1132.164062 163.277344 1125.710938 162.292969 C 1124.152344 165.472656 1121.636719 169.507812 1119.425781 168.023438 C 1116.210938 165.890625 1110.214844 158.226562 1109.261719 157.003906 C 1109.234375 156.972656 1109.214844 156.945312 1109.1875 156.917969 C 1109.167969 156.890625 1109.15625 156.871094 1109.148438 156.855469 C 1109.132812 156.851562 1109.132812 156.835938 1109.132812 156.835938 C 1109.132812 156.835938 1103.265625 152.347656 1109.132812 147.683594 " fill-opacity="1" fill-rule="nonzero"/><path fill="#ecc2a9" d="M 945.03125 407.683594 C 949.28125 405.679688 953.054688 403.898438 954.761719 403.011719 C 957.0625 401.804688 963.117188 399.972656 969.570312 398.035156 C 972.230469 397.222656 974.953125 396.402344 977.519531 395.597656 C 982.070312 394.15625 986.085938 392.765625 988.207031 391.605469 C 994.429688 388.234375 992.101562 384.089844 989.765625 379.941406 C 987.824219 376.484375 978.535156 378.417969 971.28125 380.210938 C 969.820312 380.570312 968.429688 380.933594 967.207031 381.234375 C 966.050781 381.523438 964.683594 381.878906 963.171875 382.269531 C 955.164062 384.410156 943.140625 387.875 937.902344 390.046875 C 935.613281 391 932.652344 393.046875 929.625 395.316406 C 924.429688 399.195312 919.003906 403.746094 916.378906 404.5625 C 912.230469 405.851562 917.417969 398.867188 917.417969 398.867188 C 917.417969 398.867188 920.582031 393.484375 925.980469 387.726562 C 929.964844 383.457031 935.195312 378.96875 941.273438 376.308594 C 947.722656 373.5 953.183594 370.867188 957.4375 368.484375 C 960.445312 366.800781 962.835938 365.25 964.5625 363.835938 C 965.804688 362.820312 966.695312 361.875 967.207031 361.015625 C 969.34375 357.4375 969.054688 350.574219 959.414062 351.457031 C 958.929688 351.503906 958.414062 351.574219 957.867188 351.652344 C 955.808594 351.988281 953.484375 352.484375 950.992188 353.128906 C 940.042969 355.957031 925.835938 361.511719 916.125 367.144531 C 912.457031 369.261719 909.410156 372.382812 906.859375 375.867188 C 906.09375 370.046875 905.65625 363.585938 906.265625 362.054688 C 906.648438 361.101562 908.558594 359.109375 911.082031 356.546875 C 915.398438 352.128906 921.460938 346.042969 924.421875 340.792969 C 929.085938 332.507812 923.640625 328.875 920.011719 329.910156 C 916.929688 330.796875 908.605469 334.855469 902.9375 339.246094 C 901.929688 340.007812 901.011719 340.792969 900.21875 341.574219 C 894.949219 346.761719 889.671875 356.351562 891.484375 362.054688 C 893.304688 367.761719 900.21875 387.402344 900.21875 387.402344 C 898.238281 391.625 896.773438 395.371094 895.632812 397.5625 C 892.523438 403.53125 904.972656 409.75 906.003906 417.269531 C 907.046875 424.785156 914.828125 424.785156 914.828125 432.5625 C 914.828125 437.644531 923.761719 447.234375 934.8125 452.996094 C 940.695312 456.078125 947.167969 458.070312 953.203125 457.703125 C 960.722656 457.257812 965.898438 453.414062 969.375 449.199219 C 951.644531 452.421875 937.21875 435.113281 938.679688 434.375 C 940.238281 433.597656 960.207031 426.078125 962.796875 424.523438 C 964.144531 423.71875 968.578125 421.152344 973.546875 418.410156 C 978.128906 415.878906 983.171875 413.179688 986.65625 411.5625 C 993.914062 408.195312 991.585938 399.898438 988.46875 398.605469 C 986.523438 397.792969 981.507812 398.8125 978.042969 399.683594 C 975.753906 404.046875 969.925781 405.945312 969.074219 406.203125 C 969.058594 406.214844 969.058594 406.214844 969.054688 406.214844 L 969.039062 406.214844 C 967.421875 406.917969 964.695312 407.511719 960.050781 407.773438 C 954.839844 410.320312 947.402344 413.75 941.535156 415.710938 C 931.421875 419.078125 925.71875 418.300781 926.496094 417.007812 C 927 416.152344 936.894531 411.511719 945.03125 407.683594 " fill-opacity="1" fill-rule="nonzero"/><path fill="#d2a58a" d="M 1252.976562 581.871094 C 1252.976562 557.242188 1236.902344 546.300781 1236.902344 546.300781 C 1236.902344 546.300781 1236.902344 546.300781 1236.917969 546.296875 C 1230.519531 545.445312 1226.550781 544.800781 1226.550781 544.800781 C 1235.941406 556.207031 1242.972656 570.039062 1240.703125 583.507812 C 1238.132812 598.730469 1231.820312 611.574219 1225.214844 620.300781 L 1225.226562 620.300781 C 1225.226562 620.300781 1229.167969 620.835938 1235.695312 621.613281 C 1240.359375 622.171875 1246.363281 622.855469 1253.203125 623.554688 C 1255.867188 612.902344 1252.976562 598.640625 1252.976562 581.871094 " fill-opacity="1" fill-rule="nonzero"/><path fill="#d2a58a" d="M 1220.125 120.898438 C 1223.589844 120.898438 1228.773438 122.625 1226.007812 118.476562 C 1223.234375 114.328125 1216.492188 116.578125 1212.175781 120.550781 C 1207.851562 124.527344 1207.511719 134.722656 1211 141.023438 C 1214.511719 147.328125 1212.859375 147.855469 1211.304688 153.5625 C 1209.753906 159.265625 1214.769531 156.496094 1214.769531 156.496094 C 1217.707031 154.761719 1219.601562 151.132812 1219.957031 149.058594 C 1220.300781 146.984375 1224.964844 147.507812 1223.933594 140.246094 C 1222.890625 132.992188 1216.492188 132.648438 1213.734375 128.675781 C 1210.960938 124.695312 1216.667969 120.898438 1220.125 120.898438 " fill-opacity="1" fill-rule="nonzero"/><path fill="#d2a58a" d="M 1207 166.800781 C 1207.46875 174.433594 1207.019531 189.042969 1201.285156 213.183594 C 1192.117188 251.710938 1168.4375 262.082031 1164.980469 264.328125 C 1163.265625 265.4375 1155.914062 267.488281 1147.347656 268.757812 C 1148 270.5625 1148.777344 272.5625 1149.671875 274.695312 C 1152.410156 281.21875 1156.203125 288.953125 1161.132812 296.078125 C 1205.269531 280.628906 1212.96875 193.171875 1214.191406 171.769531 C 1212.941406 171.714844 1211.726562 171.367188 1210.617188 170.667969 C 1209.085938 169.703125 1207.914062 168.367188 1207 166.800781 " fill-opacity="1" fill-rule="nonzero"/><path fill="#d2a58a" d="M 1177.34375 529.570312 C 1178.734375 532.847656 1180.179688 536.304688 1181.667969 539.960938 C 1186.273438 539.203125 1190.496094 538.363281 1193.8125 537.660156 C 1193.410156 532.242188 1182.957031 530.257812 1177.34375 529.570312 " fill-opacity="1" fill-rule="nonzero"/><path fill="#d2a58a" d="M 1174.527344 190.960938 C 1180.394531 181.585938 1187.871094 171.089844 1189.4375 165.03125 C 1191.617188 156.589844 1185.457031 154.210938 1180.621094 145.328125 C 1180.664062 145.984375 1182.066406 172.433594 1172.585938 182.675781 C 1172.585938 182.675781 1174.074219 185.867188 1174.527344 190.960938 " fill-opacity="1" fill-rule="nonzero"/><path fill="#d2a58a" d="M 1159.359375 563.460938 C 1145.003906 561.890625 1134.546875 559.90625 1127.609375 557.671875 C 1127.609375 557.671875 1111.605469 554.617188 1103.863281 558.269531 C 1103.863281 558.269531 1119.929688 558.535156 1134.585938 563.722656 C 1146.460938 567.925781 1196.042969 569.226562 1212.644531 563.496094 C 1206.65625 564.121094 1191.558594 567.011719 1159.359375 563.460938 " fill-opacity="1" fill-rule="nonzero"/><path fill="#d2a58a" d="M 1167.167969 122.777344 C 1164.972656 120.804688 1162.332031 119.132812 1159.097656 117.871094 C 1152.429688 115.261719 1153.503906 108.035156 1152.089844 101.207031 C 1122.972656 102.503906 1077.4375 117.984375 1073.523438 119.335938 C 1073.566406 120.421875 1073.597656 121.582031 1073.640625 122.785156 C 1073.691406 124.21875 1073.746094 125.722656 1073.808594 127.253906 C 1073.855469 128.664062 1073.90625 130.105469 1073.960938 131.5625 C 1075.480469 131.074219 1079.367188 129.859375 1084.757812 128.347656 C 1106.316406 122.265625 1152 111.34375 1167.167969 122.777344 " fill-opacity="1" fill-rule="nonzero"/><path fill="#d2a58a" d="M 1167.523438 204.4375 C 1160.535156 215.875 1147.316406 208.503906 1146.839844 208.238281 C 1147.296875 208.835938 1147.730469 209.476562 1148.132812 210.148438 C 1154.960938 221.410156 1163.664062 214.269531 1167.523438 204.4375 " fill-opacity="1" fill-rule="nonzero"/><path fill="#d2a58a" d="M 1134.726562 238.753906 C 1142.683594 240.484375 1149.066406 235.195312 1150.109375 230.933594 C 1150.90625 227.644531 1150.886719 220.054688 1144.039062 217.089844 L 1144.027344 217.089844 C 1143.542969 217.539062 1142.722656 218 1141.808594 218.53125 C 1138.535156 220.4375 1132.996094 225.96875 1130.449219 227.699219 C 1130.449219 227.699219 1126.769531 237.027344 1134.726562 238.753906 " fill-opacity="1" fill-rule="nonzero"/><path fill="#d2a58a" d="M 1134.613281 597.414062 C 1134.425781 599.449219 1135.4375 602.140625 1139.050781 605.636719 C 1139.648438 606.210938 1140.398438 606.816406 1141.28125 607.460938 C 1142.648438 608.441406 1144.328125 609.5 1146.269531 610.601562 C 1146.269531 610.601562 1144.839844 605.460938 1158.0625 607.535156 C 1169.214844 609.285156 1192.914062 613.609375 1203.480469 609.171875 C 1191.785156 610.902344 1157.667969 604.320312 1134.613281 597.414062 " fill-opacity="1" fill-rule="nonzero"/><path fill="#d2a58a" d="M 1199.015625 589.84375 C 1177.722656 591.003906 1144.460938 584.152344 1122.097656 579.363281 C 1119.183594 578.738281 1116.582031 578.074219 1114.277344 577.367188 C 1112.453125 578.507812 1110.597656 580.066406 1109.933594 581.910156 C 1114.269531 582.691406 1172.53125 593 1199.015625 589.84375 " fill-opacity="1" fill-rule="nonzero"/><path fill="#d2a58a" d="M 1125.90625 196.613281 L 1125.90625 196.621094 C 1125.90625 196.621094 1134.8125 197.71875 1142.160156 203.5 C 1140.582031 200.511719 1139.011719 196.976562 1138.15625 193.480469 C 1136.070312 184.84375 1127.289062 178.089844 1121.9375 178.089844 C 1116.574219 178.089844 1113.035156 183.628906 1113.035156 183.628906 C 1117.984375 179.304688 1125.90625 179.820312 1127.980469 183.109375 C 1130.054688 186.386719 1131.785156 191.574219 1129.019531 194.679688 C 1128.085938 195.742188 1127.007812 196.351562 1125.90625 196.613281 " fill-opacity="1" fill-rule="nonzero"/><path fill="#d2a58a" d="M 1117.605469 240.222656 C 1118.613281 236.269531 1114.390625 231.1875 1114.15625 230.90625 C 1112.847656 230.839844 1111.71875 230.652344 1110.867188 230.289062 C 1110.804688 230.269531 1110.738281 230.234375 1110.691406 230.210938 C 1107.683594 244.039062 1116.632812 244.046875 1117.605469 240.222656 " fill-opacity="1" fill-rule="nonzero"/><path fill="#d2a58a" d="M 1134.980469 154.683594 C 1138.648438 153.882812 1143.871094 152.789062 1147.273438 152.339844 C 1148.8125 152.117188 1149.980469 152.039062 1150.449219 152.171875 C 1150.355469 151.863281 1148.71875 147.058594 1142.953125 144.144531 C 1142.207031 144.046875 1141.519531 143.949219 1140.949219 143.878906 C 1135.417969 143.191406 1125.386719 149.058594 1117.789062 154.078125 C 1111.519531 158.199219 1109.707031 157.40625 1109.261719 157.003906 C 1110.214844 158.226562 1116.210938 165.890625 1119.425781 168.023438 C 1121.636719 169.507812 1124.152344 165.472656 1125.710938 162.292969 C 1122.972656 161.863281 1121.113281 161.273438 1121.113281 161.273438 C 1121.113281 161.273438 1122.796875 156.234375 1124.992188 153.902344 C 1124.992188 153.902344 1129.660156 155.851562 1134.980469 154.683594 " fill-opacity="1" fill-rule="nonzero"/><path fill="#d2a58a" d="M 1099.636719 171.011719 C 1099.730469 170.042969 1099.769531 169.085938 1099.769531 168.136719 C 1093.429688 171.59375 1085.074219 169.675781 1085.074219 169.675781 C 1085.265625 170.359375 1085.402344 171.0625 1085.457031 171.789062 C 1085.878906 177.722656 1085.265625 189.847656 1087.011719 200.117188 C 1088.371094 204.511719 1091.933594 214.808594 1095.625 215.074219 C 1099.0625 215.332031 1099.144531 206.285156 1101.730469 200.480469 C 1100.777344 200.195312 1099.707031 199.679688 1098.492188 198.828125 C 1091.820312 194.164062 1098.761719 180.6875 1099.636719 171.011719 " fill-opacity="1" fill-rule="nonzero"/><path fill="#d2a58a" d="M 1099.3125 161.273438 C 1099.3125 161.273438 1082.132812 157.191406 1078.546875 159.6875 C 1080.445312 162.136719 1082.75 164.59375 1084.160156 167.378906 C 1087.691406 166.425781 1090.921875 164.636719 1092.59375 163.628906 C 1094.914062 162.199219 1099.3125 161.273438 1099.3125 161.273438 " fill-opacity="1" fill-rule="nonzero"/><path fill="#d2a58a" d="M 980.246094 442.292969 L 980.230469 442.285156 C 979.21875 439.703125 978.613281 437.589844 978.613281 436.1875 C 978.613281 430.589844 975.695312 423.113281 973.546875 418.410156 C 968.578125 421.152344 964.144531 423.71875 962.796875 424.523438 C 960.207031 426.078125 940.238281 433.597656 938.679688 434.375 C 937.21875 435.113281 951.644531 452.421875 969.375 449.199219 C 965.898438 453.414062 960.722656 457.257812 953.203125 457.703125 C 947.167969 458.070312 940.695312 456.078125 934.8125 452.996094 C 936.210938 455.703125 937.9375 459.210938 939.75 463.3125 C 941.519531 467.347656 943.402344 471.949219 945.144531 476.984375 C 948.859375 476.753906 952.746094 476.511719 956.816406 476.265625 C 985.722656 466.015625 983.59375 449.667969 983.59375 449.667969 C 982.246094 446.972656 981.097656 444.476562 980.246094 442.292969 " fill-opacity="1" fill-rule="nonzero"/><path fill="#d2a58a" d="M 960.050781 407.773438 C 956.363281 407.980469 951.492188 407.988281 945.03125 407.683594 C 936.894531 411.511719 927 416.152344 926.496094 417.007812 C 925.71875 418.300781 931.421875 419.078125 941.535156 415.710938 C 947.402344 413.75 954.839844 410.320312 960.050781 407.773438 " fill-opacity="1" fill-rule="nonzero"/><path fill="#d2a58a" d="M 925.980469 387.726562 C 920.582031 393.484375 917.417969 398.867188 917.417969 398.867188 C 917.417969 398.867188 912.230469 405.851562 916.378906 404.5625 C 919.003906 403.746094 924.429688 399.195312 929.625 395.316406 C 928.617188 393.234375 927.375 390.652344 925.980469 387.726562 " fill-opacity="1" fill-rule="nonzero"/><path fill="#d2a58a" d="M 911.082031 356.546875 C 908.558594 359.109375 906.648438 361.101562 906.265625 362.054688 C 905.65625 363.585938 906.09375 370.046875 906.859375 375.867188 C 909.410156 372.382812 912.457031 369.261719 916.125 367.144531 C 914.464844 363.671875 912.773438 360.101562 911.082031 356.546875 " fill-opacity="1" fill-rule="nonzero"/><path fill="#aaa9b0" d="M 1237.890625 101.457031 L 1237.902344 101.449219 C 1228.925781 94.085938 1211.597656 94.964844 1201.285156 97.914062 C 1194.417969 99.871094 1186.222656 101.054688 1177.511719 101.449219 L 1177.511719 101.457031 C 1177.511719 101.457031 1204.824219 105.71875 1218.917969 110.582031 C 1224.125 109.402344 1229.324219 111.101562 1231.1875 121.066406 C 1231.644531 123.507812 1231.953125 125.824219 1232.144531 128.011719 C 1232.671875 127.859375 1233.183594 127.691406 1233.667969 127.503906 C 1240.703125 110.699219 1237.890625 101.457031 1237.890625 101.457031 " fill-opacity="1" fill-rule="nonzero"/><path fill="#aaa9b0" d="M 1144.917969 478.441406 C 1142.542969 476.535156 1088.375 477.5 1047.167969 479.023438 C 1028.582031 479.707031 1012.625 480.511719 1005.242188 481.210938 C 1004.191406 481.3125 1003.125 481.40625 1002.042969 481.511719 C 985.480469 483.078125 965.859375 484.890625 948.085938 486.332031 C 922.871094 488.386719 901.398438 489.695312 897.707031 488.464844 C 895.988281 487.894531 952.234375 594.066406 962.019531 602.519531 C 966.429688 606.328125 1008.207031 608.144531 1051.734375 608.609375 C 1069.96875 608.808594 1088.515625 608.757812 1104.75 608.527344 C 1108.578125 608.472656 1112.269531 608.402344 1115.808594 608.332031 C 1125.878906 608.125 1134.640625 607.824219 1141.28125 607.460938 C 1140.398438 606.816406 1139.648438 606.210938 1139.050781 605.636719 C 1135.4375 602.140625 1134.425781 599.449219 1134.613281 597.414062 C 1126.03125 594.835938 1118.992188 592.226562 1115.191406 589.976562 C 1110.101562 586.957031 1109.113281 584.214844 1109.933594 581.910156 C 1110.597656 580.066406 1112.453125 578.507812 1114.277344 577.367188 C 1097.433594 572.289062 1096.191406 565.488281 1101.351562 560.011719 C 1102.019531 559.308594 1102.882812 558.726562 1103.863281 558.269531 C 1111.605469 554.617188 1127.609375 557.671875 1127.609375 557.671875 C 1118.628906 554.765625 1115.566406 551.429688 1117.605469 547.914062 C 1121.238281 541.691406 1133.167969 539.101562 1150.800781 541.691406 C 1157.722656 542.707031 1166.960938 542.039062 1175.632812 540.875 C 1175.632812 540.875 1171.019531 530.773438 1165.339844 518.691406 C 1157.230469 501.410156 1146.964844 480.070312 1144.917969 478.441406 " fill-opacity="1" fill-rule="nonzero"/><path fill="#aaa9b0" d="M 1073.257812 119.429688 C 1073.257812 119.429688 1073.351562 119.394531 1073.523438 119.335938 C 1077.4375 117.984375 1122.972656 102.503906 1152.089844 101.207031 C 1154.835938 101.085938 1157.453125 101.085938 1159.855469 101.242188 C 1158.917969 101.179688 1157.96875 101.109375 1157.023438 101.019531 C 1155.578125 100.898438 1153.882812 100.792969 1151.980469 100.691406 C 1132.996094 99.765625 1093.464844 100.390625 1076.816406 101.019531 C 1074.511719 101.109375 1071.941406 101.335938 1069.203125 101.664062 C 1068.082031 108.269531 1069.375 119.429688 1069.375 119.429688 L 1073.257812 119.429688 " fill-opacity="1" fill-rule="nonzero"/><path fill="#aaa9b0" d="M 971.355469 403.011719 C 971.355469 403.871094 971.449219 405.15625 969.074219 406.203125 C 969.925781 405.945312 975.753906 404.046875 978.042969 399.683594 C 978.273438 399.253906 978.460938 398.8125 978.613281 398.34375 C 978.613281 398.34375 978.226562 397.363281 977.519531 395.597656 C 974.953125 396.402344 972.230469 397.222656 969.570312 398.035156 C 970.699219 400.941406 971.355469 402.71875 971.355469 403.011719 " fill-opacity="1" fill-rule="nonzero"/><path fill="#aaa9b0" d="M 963.171875 382.269531 C 964.683594 381.878906 966.050781 381.523438 967.207031 381.234375 C 968.429688 380.933594 969.820312 380.570312 971.28125 380.210938 C 969.28125 375.304688 966.984375 369.714844 964.5625 363.835938 C 962.835938 365.25 960.445312 366.800781 957.4375 368.484375 C 959.464844 373.34375 961.421875 378.019531 963.171875 382.269531 " fill-opacity="1" fill-rule="nonzero"/><path fill="#aaa9b0" d="M 932.457031 309.949219 C 934.679688 314.722656 942.757812 333.601562 950.992188 353.128906 C 953.484375 352.484375 955.808594 351.988281 957.867188 351.652344 C 958.414062 351.574219 958.929688 351.503906 959.414062 351.457031 C 950.691406 330.613281 941.574219 309.621094 938.164062 304.507812 C 938.164062 304.507812 935.3125 297.507812 926.75 297.507812 C 926.75 297.507812 906.785156 299.84375 899.265625 301.917969 C 899.265625 301.917969 891.113281 307.917969 891.484375 311.246094 L 891.746094 311.339844 C 892.464844 309.183594 895.242188 307.472656 905.488281 306.066406 C 918.714844 304.246094 927.53125 299.328125 932.457031 309.949219 " fill-opacity="1" fill-rule="nonzero"/><path fill="#5b4534" d="M 1124.992188 153.902344 C 1122.796875 156.234375 1121.113281 161.273438 1121.113281 161.273438 C 1121.113281 161.273438 1122.972656 161.863281 1125.710938 162.292969 C 1132.164062 163.277344 1143.527344 163.300781 1147.273438 152.339844 C 1143.871094 152.789062 1138.648438 153.882812 1134.980469 154.683594 C 1129.660156 155.851562 1124.992188 153.902344 1124.992188 153.902344 " fill-opacity="1" fill-rule="nonzero"/><path fill="#5b4534" d="M 1109.132812 156.835938 C 1109.132812 156.835938 1109.132812 156.851562 1109.148438 156.855469 C 1109.15625 156.871094 1109.167969 156.890625 1109.1875 156.917969 C 1109.214844 156.945312 1109.234375 156.972656 1109.261719 157.003906 C 1109.707031 157.40625 1111.519531 158.199219 1117.789062 154.078125 C 1125.386719 149.058594 1135.417969 143.191406 1140.949219 143.878906 C 1141.519531 143.949219 1142.207031 144.046875 1142.953125 144.144531 C 1149.390625 145.039062 1161.070312 146.75 1157.203125 143.191406 C 1153.957031 140.207031 1136.277344 136.453125 1132.128906 136.796875 C 1127.980469 137.140625 1115.015625 143.019531 1109.132812 147.683594 C 1103.265625 152.347656 1109.132812 156.835938 1109.132812 156.835938 " fill-opacity="1" fill-rule="nonzero"/><path fill="#5b4534" d="M 1099.769531 168.136719 C 1099.796875 165.714844 1099.601562 163.378906 1099.3125 161.273438 C 1099.3125 161.273438 1094.914062 162.199219 1092.59375 163.628906 C 1090.921875 164.636719 1087.691406 166.425781 1084.160156 167.378906 C 1084.527344 168.117188 1084.851562 168.882812 1085.074219 169.675781 C 1085.074219 169.675781 1093.429688 171.59375 1099.769531 168.136719 " fill-opacity="1" fill-rule="nonzero"/><path fill="#5b4534" d="M 1085.972656 151.433594 C 1078.714844 151.1875 1075.792969 152.21875 1075.445312 153.902344 C 1075.847656 155.9375 1077.070312 157.808594 1078.546875 159.6875 C 1082.132812 157.191406 1099.3125 161.273438 1099.3125 161.273438 C 1098.753906 157.21875 1097.820312 154.039062 1097.40625 152.769531 C 1097.40625 152.769531 1093.238281 151.703125 1085.972656 151.433594 " fill-opacity="1" fill-rule="nonzero"/><path fill="#5b4534" d="M 1177.511719 101.457031 L 1177.511719 101.449219 C 1171.765625 101.71875 1165.796875 101.65625 1159.855469 101.242188 C 1157.453125 101.085938 1154.835938 101.085938 1152.089844 101.207031 C 1153.503906 108.035156 1152.429688 115.261719 1159.097656 117.871094 C 1162.332031 119.132812 1164.972656 120.804688 1167.167969 122.777344 C 1167.167969 122.777344 1170.207031 125.953125 1171.914062 128.28125 C 1174.949219 132.738281 1177.109375 137.9375 1179.589844 143.273438 C 1179.917969 143.992188 1180.257812 144.675781 1180.621094 145.320312 C 1180.621094 145.320312 1180.621094 145.320312 1180.621094 145.328125 C 1185.457031 154.210938 1191.617188 156.589844 1189.4375 165.03125 C 1187.871094 171.089844 1180.394531 181.585938 1174.527344 190.960938 C 1171.632812 195.59375 1169.121094 199.960938 1167.917969 203.386719 C 1167.792969 203.734375 1167.65625 204.089844 1167.523438 204.4375 C 1163.664062 214.269531 1154.960938 221.410156 1148.132812 210.148438 C 1147.730469 209.476562 1147.296875 208.835938 1146.839844 208.238281 C 1146.832031 208.222656 1146.832031 208.222656 1146.832031 208.222656 C 1145.441406 206.371094 1143.835938 204.800781 1142.160156 203.5 C 1134.8125 197.71875 1125.90625 196.621094 1125.90625 196.621094 L 1125.90625 196.613281 C 1123.757812 197.148438 1121.519531 196.351562 1120.023438 194.863281 C 1117.789062 192.605469 1114.671875 195.554688 1111.042969 196.933594 C 1108.074219 198.0625 1106.027344 201.734375 1101.730469 200.480469 C 1099.144531 206.285156 1099.0625 215.332031 1095.625 215.074219 C 1091.933594 214.808594 1088.371094 204.511719 1087.011719 200.117188 C 1087.394531 202.40625 1087.898438 204.613281 1088.5625 206.640625 C 1092.195312 217.671875 1103.480469 230.371094 1106.523438 240.222656 C 1106.523438 240.222656 1108.792969 264.328125 1121.9375 268.476562 C 1123.601562 269.007812 1125.488281 269.367188 1127.515625 269.589844 C 1133.53125 270.269531 1140.789062 269.746094 1147.347656 268.757812 C 1155.914062 267.488281 1163.265625 265.4375 1164.980469 264.328125 C 1168.4375 262.082031 1192.117188 251.710938 1201.285156 213.183594 C 1207.019531 189.042969 1207.46875 174.433594 1207 166.800781 C 1204.300781 162.21875 1203.785156 155.640625 1202.488281 150.617188 C 1202.488281 150.617188 1201.113281 136.972656 1204.046875 130.234375 C 1206.992188 123.488281 1206.46875 116.578125 1213.035156 112.945312 C 1214.875 111.933594 1216.894531 111.039062 1218.917969 110.582031 C 1204.824219 105.71875 1177.511719 101.457031 1177.511719 101.457031 Z M 1150.109375 230.933594 C 1149.066406 235.195312 1142.683594 240.484375 1134.726562 238.753906 C 1126.769531 237.027344 1130.449219 227.699219 1130.449219 227.699219 C 1128.390625 229.09375 1119.75 231.183594 1114.15625 230.90625 C 1114.390625 231.1875 1118.613281 236.269531 1117.605469 240.222656 C 1116.632812 244.046875 1107.683594 244.039062 1110.691406 230.210938 C 1107.992188 228.921875 1108.847656 225.894531 1109.800781 223.894531 C 1105.382812 220.699219 1105.746094 214.921875 1108.867188 215.089844 C 1112.402344 215.261719 1113.457031 216.289062 1117.265625 213.34375 C 1121.066406 210.410156 1126.429688 212.667969 1136.800781 214.042969 C 1144.28125 215.035156 1145.28125 215.941406 1144.039062 217.089844 C 1150.886719 220.054688 1150.90625 227.644531 1150.109375 230.933594 " fill-opacity="1" fill-rule="nonzero"/><path fill="#5b4534" d="M 954.761719 403.011719 C 953.054688 403.898438 949.28125 405.679688 945.03125 407.683594 C 951.492188 407.988281 956.363281 407.980469 960.050781 407.773438 C 964.695312 407.511719 967.421875 406.917969 969.039062 406.214844 L 969.054688 406.214844 C 969.058594 406.214844 969.058594 406.214844 969.074219 406.203125 C 971.449219 405.15625 971.355469 403.871094 971.355469 403.011719 C 971.355469 402.71875 970.699219 400.941406 969.570312 398.035156 C 963.117188 399.972656 957.0625 401.804688 954.761719 403.011719 " fill-opacity="1" fill-rule="nonzero"/><path fill="#5b4534" d="M 957.4375 368.484375 C 953.183594 370.867188 947.722656 373.5 941.273438 376.308594 C 935.195312 378.96875 929.964844 383.457031 925.980469 387.726562 C 927.375 390.652344 928.617188 393.234375 929.625 395.316406 C 932.652344 393.046875 935.613281 391 937.902344 390.046875 C 943.140625 387.875 955.164062 384.410156 963.171875 382.269531 C 961.421875 378.019531 959.464844 373.34375 957.4375 368.484375 " fill-opacity="1" fill-rule="nonzero"/><path fill="#5b4534" d="M 932.457031 309.949219 C 927.53125 299.328125 918.714844 304.246094 905.488281 306.066406 C 895.242188 307.472656 892.464844 309.183594 891.746094 311.339844 C 891.523438 311.964844 891.484375 312.628906 891.484375 313.320312 C 891.484375 314.398438 896.453125 325.394531 902.9375 339.246094 C 908.605469 334.855469 916.929688 330.796875 920.011719 329.910156 C 923.640625 328.875 929.085938 332.507812 924.421875 340.792969 C 921.460938 346.042969 915.398438 352.128906 911.082031 356.546875 C 912.773438 360.101562 914.464844 363.671875 916.125 367.144531 C 925.835938 361.511719 940.042969 355.957031 950.992188 353.128906 C 942.757812 333.601562 934.679688 314.722656 932.457031 309.949219 " fill-opacity="1" fill-rule="nonzero"/></svg>