<svg xmlns="http://www.w3.org/2000/svg" xmlns:xlink="http://www.w3.org/1999/xlink" width="1920" zoomAndPan="magnify" viewBox="0 0 1440 809.999993" height="1080" preserveAspectRatio="xMidYMid meet" version="1.0"><defs><clipPath id="86fc912370"><path d="M 452.195312 30 L 572 30 L 572 60 L 452.195312 60 Z M 452.195312 30 " clip-rule="nonzero"/></clipPath></defs><rect x="-144" width="1728" fill="#ffffff" y="-80.999999" height="971.999992" fill-opacity="1"/><rect x="-144" width="1728" fill="#ffffff" y="-80.999999" height="971.999992" fill-opacity="1"/><path fill="#26285d" d="M 1016.976562 655.882812 C 1016.976562 655.882812 1026.777344 662.261719 1031.867188 675.355469 C 1045.101562 709.617188 999.589844 696.25 985.085938 683.769531 C 979.15625 678.6875 976.59375 645.449219 990.296875 642.25 C 995.664062 641.003906 1016.976562 655.882812 1016.976562 655.882812 " fill-opacity="1" fill-rule="nonzero"/><path fill="#f68c82" d="M 1032.886719 225.472656 C 1032.886719 225.472656 1024.007812 257.71875 1000.96875 292.390625 C 1000.96875 292.390625 989.132812 314.652344 1006.925781 311.035156 C 1024.742188 307.425781 1063.121094 261.175781 1067.199219 243.6875 C 1071.269531 226.195312 1054.035156 186.488281 1032.886719 225.472656 " fill-opacity="1" fill-rule="nonzero"/><path fill="#26285d" d="M 942.660156 651.949219 C 942.660156 651.949219 946 653.339844 946.125 654.402344 C 946.234375 655.476562 948.894531 669.671875 948.25 672.238281 C 947.605469 674.804688 908.347656 683.542969 908.347656 683.542969 C 908.347656 683.542969 880.25 687.613281 865.675781 680.539062 C 862.363281 678.933594 864.304688 676.132812 865.296875 675.183594 C 885.03125 656.445312 919.324219 646.601562 919.324219 646.601562 L 942.660156 651.949219 " fill-opacity="1" fill-rule="nonzero"/><path fill="#f68c82" d="M 991.789062 638.445312 C 991.789062 638.445312 993.894531 660.441406 993.8125 660.871094 C 993.007812 664.253906 983.542969 665.15625 980.546875 662.824219 L 973.515625 641.984375 L 991.789062 638.445312 " fill-opacity="1" fill-rule="nonzero"/><path fill="#f68c82" d="M 942.332031 633.621094 C 942.332031 633.621094 944.253906 655.496094 944.128906 656.070312 C 943.375 659.484375 934.316406 660.75 931.34375 658.390625 L 925.691406 636.65625 L 942.332031 633.621094 " fill-opacity="1" fill-rule="nonzero"/><path fill="#26285d" d="M 860.472656 300.964844 C 863.046875 355.078125 867.933594 434.746094 875.957031 480.476562 C 875.957031 480.476562 926.507812 466.726562 929.339844 449.320312 C 931.191406 437.996094 923.085938 356.539062 917.175781 300.964844 L 860.472656 300.964844 " fill-opacity="1" fill-rule="nonzero"/><path fill="#2e3192" d="M 878.410156 300.964844 C 893.648438 334.082031 914.9375 369.050781 914.9375 369.765625 C 943.578125 501.53125 968.332031 638.261719 977.441406 665.789062 C 981.230469 677.238281 1023.160156 659.59375 1023.160156 659.59375 C 1019.082031 564.339844 1005.824219 563.71875 980.648438 300.964844 L 878.410156 300.964844 " fill-opacity="1" fill-rule="nonzero"/><path fill="#f7981a" d="M 945.589844 347.605469 C 945.589844 347.605469 954.65625 436.164062 965.777344 430.605469 C 967.476562 429.757812 1017.292969 428.050781 1018.109375 426.628906 C 1018.917969 425.207031 1005.914062 360.402344 1000.765625 352.726562 L 945.589844 347.605469 " fill-opacity="1" fill-rule="nonzero"/><path fill="#f7981a" d="M 955.71875 330.402344 C 955.71875 332.109375 969.949219 448.074219 969.949219 448.074219 L 981.875 448.074219 L 965.664062 330.402344 L 955.71875 330.402344 " fill-opacity="1" fill-rule="nonzero"/><path fill="#ffffff" d="M 954.523438 367.792969 L 962.742188 398.96875 L 1007.265625 389.226562 L 996.226562 356.316406 L 954.523438 367.792969 " fill-opacity="1" fill-rule="nonzero"/><path fill="#f7981a" d="M 898.464844 320.03125 C 898.464844 320.03125 890.101562 401.761719 879.839844 396.617188 C 878.277344 395.839844 832.292969 394.257812 831.546875 392.949219 C 830.800781 391.640625 842.789062 331.835938 847.542969 324.75 L 898.464844 320.03125 " fill-opacity="1" fill-rule="nonzero"/><path fill="#f7981a" d="M 892.597656 358.429688 C 892.597656 358.429688 884.226562 440.171875 873.964844 435.039062 C 872.390625 434.242188 833.476562 430.664062 832.722656 429.347656 C 831.976562 428.039062 843.503906 370.675781 848.257812 363.601562 L 892.597656 358.429688 " fill-opacity="1" fill-rule="nonzero"/><path fill="#26285d" d="M 916.605469 441.234375 C 916.605469 441.234375 927.019531 438.691406 929.011719 444.3125 C 931.027344 449.914062 944.285156 620.363281 947.144531 660.679688 C 947.144531 660.679688 906.488281 666.65625 901.058594 659.59375 C 892.71875 648.769531 875.957031 480.476562 875.957031 480.476562 L 916.605469 441.234375 " fill-opacity="1" fill-rule="nonzero"/><path fill="#e9e9e9" d="M 956.058594 121.5 C 956.058594 121.5 997.625 124.648438 1063.890625 215.1875 C 1063.890625 215.1875 1070.542969 224.613281 1042.167969 232.125 C 1024.90625 236.695312 1003.535156 211.457031 955.507812 168.210938 C 955.507812 168.210938 942.6875 118.964844 956.058594 121.5 " fill-opacity="1" fill-rule="nonzero"/><path fill="#2e3192" d="M 885.789062 43.386719 C 886.054688 50.601562 887.160156 58.289062 890.226562 63.5625 L 896.480469 41.535156 C 892.964844 42.3125 889.386719 42.917969 885.789062 43.386719 " fill-opacity="1" fill-rule="nonzero"/><path fill="#ffffff" d="M 984.613281 134.359375 C 984.613281 134.359375 930.914062 112.921875 922.347656 112.238281 L 864.988281 132.007812 C 864.988281 132.007812 858.203125 279.246094 858.855469 292.390625 C 874.71875 293.710938 908.378906 303.390625 924.453125 303.726562 C 932.742188 303.890625 949.546875 302.253906 965.421875 297.175781 C 970.550781 278.847656 989.839844 165.410156 984.613281 134.359375 " fill-opacity="1" fill-rule="nonzero"/><path fill="#bdbcbc" d="M 868.933594 127.386719 C 868.933594 127.386719 829.667969 144.988281 799.054688 252.9375 C 799.054688 252.9375 829.378906 267.980469 839.019531 252.9375 C 848.644531 237.878906 859.265625 221.238281 889.222656 163.96875 C 889.222656 163.96875 880.585938 120.363281 868.933594 127.386719 " fill-opacity="1" fill-rule="nonzero"/><path fill="#f7981a" d="M 864.988281 294.136719 L 978.03125 287.546875 C 978.03125 287.546875 973.730469 312.28125 972.921875 312.660156 C 972.105469 313.027344 924.320312 323.628906 924.320312 323.628906 L 875.78125 315.582031 L 864.988281 294.136719 " fill-opacity="1" fill-rule="nonzero"/><path fill="#fab43d" d="M 896.480469 119.054688 L 866.644531 126.621094 L 846.386719 373.058594 L 911.21875 385.457031 L 896.480469 119.054688 " fill-opacity="1" fill-rule="nonzero"/><path fill="#fab43d" d="M 951.722656 117.871094 L 988.160156 134.09375 L 1003.308594 373.058594 L 938.476562 385.457031 L 951.722656 117.871094 " fill-opacity="1" fill-rule="nonzero"/><path fill="#ffffff" d="M 853.847656 247.34375 L 852.222656 272.929688 L 902.316406 272.929688 L 900.425781 247.34375 L 853.847656 247.34375 " fill-opacity="1" fill-rule="nonzero"/><path fill="#ffffff" d="M 905.863281 332.613281 L 903.398438 299.636719 L 849.617188 299.636719 L 847.53125 332.613281 L 905.863281 332.613281 " fill-opacity="1" fill-rule="nonzero"/><path fill="#ffffff" d="M 951 247.34375 L 949.085938 272.929688 L 999.199219 272.929688 L 997.574219 247.34375 L 951 247.34375 " fill-opacity="1" fill-rule="nonzero"/><path fill="#ffffff" d="M 1003.308594 332.613281 L 1001.222656 299.636719 L 947.429688 299.636719 L 944.976562 332.613281 L 1003.308594 332.613281 " fill-opacity="1" fill-rule="nonzero"/><path fill="#e66f64" d="M 941.65625 91.816406 C 942.054688 90.753906 907.609375 93.023438 907.609375 93.023438 C 907.609375 93.023438 910.085938 114.957031 907.039062 121.773438 L 924.351562 151.273438 C 924.351562 151.273438 937.988281 126.261719 940.941406 120.691406 C 940.941406 120.691406 935.984375 106.863281 941.65625 91.816406 " fill-opacity="1" fill-rule="nonzero"/><path fill="#f68c82" d="M 899.445312 98.542969 C 899.445312 98.542969 913.601562 120.261719 937.578125 104.246094 C 955.773438 92.082031 971.5 29.78125 961.585938 18.476562 C 951.664062 7.164062 905.660156 4.945312 894.191406 28.167969 C 885.238281 46.308594 889.234375 82.945312 899.445312 98.542969 " fill-opacity="1" fill-rule="nonzero"/><path fill="#2e3192" d="M 903.59375 47.230469 C 903.59375 47.230469 915.644531 63.339844 945.113281 65.792969 C 945.113281 65.792969 928.890625 43.96875 924.351562 41.90625 C 919.816406 39.828125 903.59375 47.230469 903.59375 47.230469 " fill-opacity="1" fill-rule="nonzero"/><path fill="#2e3192" d="M 891.132812 39.1875 C 891.132812 39.1875 894.761719 58.976562 920.039062 74.296875 C 920.039062 74.296875 915.234375 47.535156 912.085938 43.664062 C 908.941406 39.800781 891.132812 39.1875 891.132812 39.1875 " fill-opacity="1" fill-rule="nonzero"/><path fill="#2e3192" d="M 939.621094 36.089844 C 939.621094 36.089844 937.988281 11.84375 954.066406 15.808594 C 954.066406 15.808594 980.566406 42.621094 963.34375 72.210938 C 953.941406 88.351562 939.214844 112.238281 939.214844 112.238281 L 939.601562 100.492188 C 939.601562 100.492188 953.492188 46.441406 939.621094 36.089844 " fill-opacity="1" fill-rule="nonzero"/><path fill="#f68c82" d="M 939.4375 77.976562 C 936.882812 83.515625 937.78125 89.382812 941.472656 91.082031 C 945.140625 92.757812 950.203125 89.648438 952.746094 84.097656 C 955.292969 78.546875 954.390625 72.679688 950.710938 70.996094 C 947.03125 69.308594 941.984375 72.425781 939.4375 77.976562 " fill-opacity="1" fill-rule="nonzero"/><path fill="#f68c82" d="M 996.582031 300.945312 C 996.582031 300.945312 992.085938 306.230469 982.847656 296.214844 C 973.605469 286.207031 977.367188 284.132812 1004.363281 294.539062 L 996.582031 300.945312 " fill-opacity="1" fill-rule="nonzero"/><path fill="#f68c82" d="M 995.828125 291.265625 C 995.828125 291.265625 992.300781 289.273438 982.847656 296.214844 C 973.382812 303.152344 970.335938 309.808594 966.972656 315.980469 C 964.4375 320.644531 968.058594 319.007812 968.34375 319.109375 C 968.515625 319.179688 967.660156 319.355469 968.457031 320.480469 C 968.957031 321.175781 970.917969 322.195312 972.125 322.378906 C 972.859375 322.492188 975.507812 322.832031 976.664062 323.003906 C 982.152344 323.769531 992.425781 323.976562 1010.238281 309.980469 C 1010.238281 309.980469 1011.527344 292.308594 995.828125 291.265625 " fill-opacity="1" fill-rule="nonzero"/><path fill="#fab43d" d="M 899.636719 52.199219 C 899.636719 52.199219 944.171875 55.140625 968.089844 42.128906 C 968.089844 42.128906 970.550781 1.019531 925.785156 3.972656 C 925.785156 3.972656 890.308594 6.496094 890.582031 40.699219 C 890.582031 40.699219 872.902344 44.429688 872 47.25 C 871.113281 50.082031 885.054688 52.515625 899.636719 52.199219 " fill-opacity="1" fill-rule="nonzero"/><path fill="#f7981a" d="M 894.355469 41.617188 C 894.355469 41.617188 900.496094 46.105469 919.015625 47.8125 C 919.015625 47.8125 922.257812 4.832031 946.757812 6.570312 C 946.757812 6.570312 943.363281 3.09375 938.671875 2.523438 C 935.972656 2.203125 920.234375 0.0390625 912.679688 5.679688 C 905.136719 11.3125 897.441406 24.417969 894.355469 41.617188 " fill-opacity="1" fill-rule="nonzero"/><path fill="#e9e9e9" d="M 1024.640625 221.554688 C 1024.640625 221.554688 1018.96875 228.566406 1020.632812 232.933594 C 1022.28125 237.289062 1023.800781 247.703125 1053.175781 244.871094 C 1082.542969 242.019531 1079.691406 219.847656 1060.933594 213.214844 C 1042.179688 206.582031 1024.640625 221.554688 1024.640625 221.554688 " fill-opacity="1" fill-rule="nonzero"/><path fill="#ffffff" d="M 938.9375 107.691406 C 938.9375 107.691406 938.898438 115.507812 940.234375 118.238281 C 941.605469 120.957031 924.351562 151.273438 924.351562 151.273438 L 961.015625 114.128906 L 938.9375 107.691406 " fill-opacity="1" fill-rule="nonzero"/><path fill="#ffffff" d="M 909.328125 107.691406 C 909.328125 107.691406 909.359375 115.507812 908.019531 118.238281 C 906.671875 120.957031 923.921875 151.273438 923.921875 151.273438 L 887.25 114.128906 L 909.328125 107.691406 " fill-opacity="1" fill-rule="nonzero"/><path fill="#e66f64" d="M 853.308594 334.003906 C 840.828125 298.707031 839.171875 264.722656 839.019531 252.609375 C 832.425781 258.28125 823.347656 261.234375 813.40625 261.582031 C 809.082031 261.726562 804.859375 261.472656 800.773438 260.816406 C 804.074219 284.511719 825.722656 333.511719 839.273438 342.046875 C 854.636719 351.746094 853.308594 334.003906 853.308594 334.003906 " fill-opacity="1" fill-rule="nonzero"/><path fill="#e66f64" d="M 853 343.824219 C 853 343.824219 847.183594 347.605469 855.921875 358.054688 C 864.664062 368.5 867.1875 365.054688 860.371094 336.9375 L 853 343.824219 " fill-opacity="1" fill-rule="nonzero"/><path fill="#e66f64" d="M 857.179688 331.4375 C 857.179688 331.4375 861.011719 332.714844 862.179688 344.398438 C 863.34375 356.070312 860.429688 362.785156 858.082031 369.417969 C 856.300781 374.40625 855.117188 370.636719 854.851562 370.480469 C 854.695312 370.410156 855.117188 371.15625 853.757812 371.300781 C 852.898438 371.414062 850.824219 370.636719 849.902344 369.878906 C 849.300781 369.378906 847.296875 367.652344 846.386719 366.90625 C 842.15625 363.335938 834.113281 356.765625 832.609375 334.175781 C 832.609375 334.175781 845.917969 320.449219 857.179688 331.4375 " fill-opacity="1" fill-rule="nonzero"/><path fill="#bdbcbc" d="M 796.589844 247.070312 C 796.589844 247.070312 790.007812 253.234375 791.0625 257.769531 C 792.113281 262.320312 792.175781 272.847656 821.664062 274.074219 C 851.140625 275.300781 851.363281 252.945312 833.703125 243.796875 C 816.03125 234.648438 796.589844 247.070312 796.589844 247.070312 " fill-opacity="1" fill-rule="nonzero"/><path fill="#26285d" d="M 613.351562 101.097656 C 613.351562 101.097656 608.78125 117.839844 614.117188 128.949219 C 618.820312 138.742188 634.710938 140.070312 641.96875 132.660156 C 649.226562 125.25 613.351562 101.097656 613.351562 101.097656 " fill-opacity="1" fill-rule="nonzero"/><path fill="#26285d" d="M 541.804688 137.023438 C 541.804688 137.023438 526.75 114.078125 530.070312 67.582031 C 530.070312 67.582031 514.035156 47.433594 498.660156 60.773438 C 483.289062 74.113281 486.394531 139.957031 493.886719 158.625 C 506.960938 191.261719 542.691406 186.691406 541.804688 137.023438 " fill-opacity="1" fill-rule="nonzero"/><path fill="#26285d" d="M 658.957031 229.722656 C 658.957031 229.722656 608.046875 240.761719 509.292969 177.050781 C 509.292969 177.050781 504.734375 165.992188 528.230469 143.023438 C 542.558594 129.03125 616.355469 134.101562 633.515625 147.726562 C 633.515625 147.726562 673.398438 224.808594 658.957031 229.722656 " fill-opacity="1" fill-rule="nonzero"/><path fill="#bdbcbc" d="M 534.527344 67.367188 C 534.527344 67.367188 535.886719 63.953125 539.15625 58.617188 C 547.414062 45.136719 558.566406 20.605469 554.019531 16.78125 C 549.410156 12.925781 547.90625 14.152344 543.683594 15.890625 C 543.460938 15.972656 539.761719 16.199219 537.960938 15.777344 C 536.835938 15.511719 532.277344 17.027344 530.917969 17.90625 C 530.050781 18.46875 526.910156 19.417969 525.605469 20.277344 C 519.359375 24.386719 503.242188 38.734375 501.402344 65.957031 C 501.402344 65.957031 517.734375 80.308594 534.527344 67.367188 " fill-opacity="1" fill-rule="nonzero"/><path fill="#26285d" d="M 662.757812 740.109375 C 662.757812 740.109375 667.101562 742.265625 667.152344 743.71875 C 667.203125 745.160156 669.421875 764.363281 668.308594 767.726562 C 667.203125 771.089844 608.34375 777.570312 608.34375 777.570312 C 608.34375 777.570312 578.578125 776.128906 575.472656 772.296875 C 572.355469 768.453125 573.691406 765.558594 575.472656 765.089844 C 577.238281 764.597656 645.882812 738.421875 645.882812 738.421875 L 662.757812 740.109375 " fill-opacity="1" fill-rule="nonzero"/><path fill="#26285d" d="M 732.394531 743.859375 C 732.394531 743.859375 728.082031 745.84375 727.988281 747.242188 C 727.90625 748.652344 725.167969 767.359375 726.148438 770.671875 C 727.128906 773.992188 784.457031 782.066406 784.457031 782.066406 C 784.457031 782.066406 813.578125 781.535156 816.726562 777.867188 C 819.875 774.207031 818.65625 771.355469 816.941406 770.835938 C 815.214844 770.3125 754.480469 738.421875 754.480469 738.421875 L 732.394531 743.859375 " fill-opacity="1" fill-rule="nonzero"/><path fill="#26285d" d="M 630.203125 545.195312 C 630.203125 545.195312 656.992188 534.105469 658.546875 539.675781 C 660.109375 545.246094 671.210938 706.726562 671.210938 745.964844 C 671.210938 745.964844 616.949219 753.519531 612.175781 746.324219 C 604.835938 735.253906 587.441406 584.703125 587.441406 584.703125 L 630.203125 545.195312 " fill-opacity="1" fill-rule="nonzero"/><path fill="#26285d" d="M 584.804688 349.816406 C 584.804688 349.816406 579.980469 512.261719 587.441406 584.703125 C 587.441406 584.703125 654.582031 561.203125 658.515625 544.5625 C 662.460938 527.890625 638.484375 358.410156 638.484375 358.410156 L 584.804688 349.816406 " fill-opacity="1" fill-rule="nonzero"/><path fill="#2e3192" d="M 645.402344 356.265625 C 644.871094 364.105469 588.023438 352.707031 587.5 360.730469 C 585.558594 390.792969 633.597656 474.800781 633.515625 475.894531 C 677.671875 597.632812 714.210938 718.335938 721.140625 745.617188 C 724.023438 756.964844 767.71875 741.070312 767.71875 741.070312 C 771.847656 593.808594 700.871094 368.4375 700.871094 368.4375 C 686.246094 358.75 665.230469 356.058594 645.402344 356.265625 " fill-opacity="1" fill-rule="nonzero"/><path fill="#2e3192" d="M 660.878906 163.886719 C 660.878906 163.886719 703.898438 182.613281 728.773438 204.382812 C 728.773438 204.382812 717.929688 312.9375 700.871094 368.4375 C 700.871094 368.4375 628.394531 401.667969 585.285156 360.210938 C 585.285156 360.210938 560.773438 200.570312 598.488281 140.613281 C 598.488281 140.613281 641.070312 142.996094 660.878906 163.886719 " fill-opacity="1" fill-rule="nonzero"/><path fill="#26285d" d="M 678.867188 381.839844 L 682.179688 382.339844 L 684.234375 368.828125 L 680.929688 368.324219 L 678.867188 381.839844 " fill-opacity="1" fill-rule="nonzero"/><path fill="#ffffff" d="M 683.242188 167.863281 C 683.242188 167.863281 640.445312 195.738281 621.109375 227.269531 C 621.109375 227.269531 617.867188 171.941406 633.515625 147.726562 C 633.515625 147.726562 662.777344 147.125 683.242188 167.863281 " fill-opacity="1" fill-rule="nonzero"/><path fill="#26285d" d="M 621.804688 191.863281 C 620.679688 191.382812 597.550781 172.195312 612.902344 150.761719 C 628.253906 129.328125 656.566406 140.613281 656.566406 140.613281 L 647.570312 168.230469 C 634.609375 171.144531 622.632812 184.707031 622.632812 184.707031 L 621.804688 191.863281 " fill-opacity="1" fill-rule="nonzero"/><path fill="#e66f64" d="M 679.96875 119.402344 C 679.96875 119.402344 671.621094 151.855469 670.453125 170.46875 C 670.453125 170.46875 655.746094 183.625 643.03125 171.441406 C 643.03125 171.441406 638.105469 122.707031 627.742188 115.242188 C 617.378906 107.761719 679.96875 119.402344 679.96875 119.402344 " fill-opacity="1" fill-rule="nonzero"/><path fill="#ffffff" d="M 717.542969 374.507812 C 717.542969 374.507812 702.015625 362.835938 699.789062 347.15625 C 699.789062 347.15625 698.828125 345.878906 696.742188 347.15625 C 694.667969 348.433594 690.988281 358.828125 692.417969 364.113281 C 693.859375 369.398438 702.507812 374.507812 702.507812 374.507812 L 717.542969 374.507812 " fill-opacity="1" fill-rule="nonzero"/><path fill="#bdbcbc" d="M 527.339844 71.628906 C 527.339844 71.628906 538.941406 62.277344 554.519531 59.996094 C 554.519531 59.996094 555.808594 59.035156 554.519531 56.972656 C 553.242188 54.90625 542.886719 51.277344 537.644531 52.71875 C 532.390625 54.171875 527.320312 62.777344 527.320312 62.777344 L 527.339844 71.628906 " fill-opacity="1" fill-rule="nonzero"/><path fill="#2e3192" d="M 742.757812 308.285156 C 742.757812 308.285156 741.675781 334.421875 710.367188 368.960938 C 710.367188 368.960938 701.875 403.722656 722.191406 402.710938 C 742.53125 401.699219 787.433594 344.734375 794.882812 326.050781 C 802.316406 307.375 796.480469 263.527344 742.757812 308.285156 " fill-opacity="1" fill-rule="nonzero"/><path fill="#2e3192" d="M 689.269531 172.195312 C 689.269531 172.195312 734.753906 182.652344 792.953125 294.027344 C 792.953125 294.027344 787.503906 305.800781 754.839844 309.359375 C 734.9375 311.523438 725.535156 298.359375 679.613281 242.417969 C 679.613281 242.417969 674.878906 167.167969 689.269531 172.195312 " fill-opacity="1" fill-rule="nonzero"/><path fill="#26285d" d="M 646.25 197.515625 C 646.25 197.515625 665.8125 182.929688 670.453125 170.46875 L 672.980469 144.671875 C 672.980469 144.671875 717.429688 163.652344 690.570312 193.632812 C 672.980469 213.265625 645.054688 200.222656 644.730469 199.027344 " fill-opacity="1" fill-rule="nonzero"/><path fill="#ffffff" d="M 706.09375 367.792969 C 706.09375 367.792969 710.417969 362.507812 696.355469 369.867188 C 682.269531 377.25 654.539062 379.476562 654.539062 385.445312 C 654.539062 391.488281 656.460938 391.84375 660.511719 393.972656 C 660.734375 394.09375 663.289062 396.800781 664.136719 398.457031 C 664.660156 399.492188 668.769531 402.027344 670.332031 402.507812 C 671.3125 402.8125 674.074219 404.621094 675.585938 405.070312 C 682.761719 407.226562 694.914062 410.886719 721.589844 395.75 C 721.589844 395.75 726.882812 372.363281 706.09375 367.792969 " fill-opacity="1" fill-rule="nonzero"/><path fill="#2e3192" d="M 776.710938 712.09375 C 775.660156 712.441406 704.214844 711.847656 706.144531 723.375 C 706.839844 727.609375 706.492188 746.394531 717.789062 749.707031 C 729.082031 753.019531 773.53125 748.429688 776.710938 742.082031 C 779.890625 735.734375 776.710938 712.09375 776.710938 712.09375 " fill-opacity="1" fill-rule="nonzero"/><path fill="#26285d" d="M 680.605469 714.023438 C 679.328125 714.308594 595.1875 708.921875 596.792969 720.566406 C 597.386719 724.839844 595.914062 743.5625 609.027344 747.632812 C 622.128906 751.699219 674.789062 750.105469 678.886719 743.972656 C 682.996094 737.851562 680.605469 714.023438 680.605469 714.023438 " fill-opacity="1" fill-rule="nonzero"/><path fill="#26285d" d="M 611.386719 221.433594 L 586.511719 209.25 L 584.382812 244.472656 L 590.691406 257.945312 L 609.261719 253.980469 L 611.386719 221.433594 " fill-opacity="1" fill-rule="nonzero"/><path fill="#26285d" d="M 668.769531 245.769531 L 643.902344 233.597656 L 641.785156 268.820312 L 648.082031 282.292969 L 666.664062 278.324219 L 668.769531 245.769531 " fill-opacity="1" fill-rule="nonzero"/><path fill="#26285d" d="M 621.996094 225.871094 L 620.832031 224.070312 L 619.257812 227.84375 C 619.257812 227.84375 600.574219 332.804688 600.960938 371.597656 L 604.929688 373.558594 L 621.996094 225.871094 " fill-opacity="1" fill-rule="nonzero"/><path fill="#26285d" d="M 584.457031 363.070312 L 587.101562 363.46875 L 589.15625 349.949219 L 584.804688 349.816406 L 584.457031 363.070312 " fill-opacity="1" fill-rule="nonzero"/><path fill="#26285d" d="M 645.238281 380.539062 L 648.550781 381.042969 L 650.605469 367.527344 L 647.285156 367.027344 L 645.238281 380.539062 " fill-opacity="1" fill-rule="nonzero"/><path fill="#f68c82" d="M 635.785156 57.453125 C 635.785156 57.453125 670.035156 41.773438 692.429688 63.574219 C 692.429688 63.574219 703.40625 91.601562 701.003906 112.667969 C 698.625 133.734375 693.605469 153.65625 678.019531 154.738281 C 678.019531 154.738281 634.058594 153.347656 628.039062 123.238281 C 622.621094 96.128906 625.460938 64.402344 635.785156 57.453125 " fill-opacity="1" fill-rule="nonzero"/><path fill="#2e3192" d="M 631.359375 89.988281 C 631.359375 98.070312 639.484375 110.765625 656.390625 111.921875 C 679.980469 113.535156 696.988281 98.652344 696.988281 90.570312 C 696.988281 82.484375 661.347656 83.292969 649.554688 83.292969 C 637.757812 83.292969 631.359375 81.902344 631.359375 89.988281 " fill-opacity="1" fill-rule="nonzero"/><path fill="#f68c82" d="M 634.507812 111.398438 C 637.042969 120.332031 634.976562 128.726562 629.910156 130.15625 C 624.839844 131.585938 618.695312 125.515625 616.179688 116.582031 C 613.65625 107.660156 615.710938 99.265625 620.769531 97.835938 C 625.839844 96.394531 631.992188 102.476562 634.507812 111.398438 " fill-opacity="1" fill-rule="nonzero"/><path fill="#2e3192" d="M 625.175781 86.5625 C 638.421875 73.40625 654.796875 63.082031 674.125 62.417969 C 676.925781 62.328125 682.617188 61.855469 688.289062 62.152344 C 691.058594 65.484375 693.726562 69.15625 696.988281 73.152344 C 694.453125 72.804688 691.867188 72.148438 689.332031 71.148438 C 689.332031 71.148438 678.449219 73.9375 674.050781 67.160156 C 674.050781 67.160156 667.050781 77.109375 651.515625 72.28125 C 651.515625 72.28125 653.058594 90.628906 638.605469 93.265625 C 638.605469 93.265625 636.816406 102.058594 640.089844 107.882812 C 643.339844 113.71875 640.558594 118.921875 638.441406 120.558594 C 636.335938 122.203125 636.335938 116.511719 636.335938 116.511719 C 636.335938 116.511719 632.535156 105.011719 627.496094 104.070312 C 622.4375 103.140625 621.730469 105.941406 620.035156 106.800781 C 618.316406 107.660156 614.894531 109.214844 612.878906 103.765625 C 611.519531 100.085938 612.441406 95.914062 612.878906 92.898438 C 617.089844 92.335938 621.332031 90.375 625.175781 86.5625 " fill-opacity="1" fill-rule="nonzero"/><path fill="#fab43d" d="M 563.21875 51.523438 L 564.023438 56.0625 L 601.226562 49.507812 C 601.226562 49.507812 616.917969 48.628906 613.851562 31.265625 C 612.195312 21.808594 607.175781 14.878906 596.191406 16.8125 L 600.378906 41.628906 L 562.644531 48.273438 L 563.21875 51.523438 " fill-opacity="1" fill-rule="nonzero"/><path fill="#f7981a" d="M 567.796875 57.277344 L 581.441406 54.886719 L 575.339844 20.226562 L 561.714844 22.628906 L 567.796875 57.277344 " fill-opacity="1" fill-rule="nonzero"/><g clip-path="url(#86fc912370)"><path fill="#f7981a" d="M 454.539062 55.324219 C 454.25 53.699219 455.34375 52.136719 456.96875 51.851562 C 458.59375 51.5625 460.160156 52.65625 460.445312 54.292969 C 460.742188 55.917969 459.636719 57.472656 458.011719 57.757812 C 456.378906 58.042969 454.8125 56.949219 454.539062 55.324219 Z M 452.648438 55.664062 C 453.066406 58.085938 455.386719 59.699219 457.808594 59.28125 L 458.011719 59.199219 L 571.078125 39.277344 L 569.554688 30.601562 L 456.480469 50.5 L 456.265625 50.5 C 453.84375 50.921875 452.21875 53.242188 452.648438 55.664062 " fill-opacity="1" fill-rule="nonzero"/></g><path fill="#fab43d" d="M 694.230469 105.695312 C 694.230469 105.695312 642.011719 111.054688 612.15625 94.820312 C 612.15625 94.820312 605.734375 41.824219 661.613281 45.511719 C 661.613281 45.511719 705.859375 48.652344 705.542969 91.347656 C 705.542969 91.347656 727.609375 95.996094 728.722656 99.523438 C 729.839844 103.058594 712.433594 106.085938 694.230469 105.695312 " fill-opacity="1" fill-rule="nonzero"/><path fill="#f7981a" d="M 700.820312 92.480469 C 700.820312 92.480469 693.175781 98.09375 670.054688 100.21875 C 670.054688 100.21875 666 46.585938 635.425781 48.753906 C 635.425781 48.753906 639.679688 44.410156 645.527344 43.703125 C 648.886719 43.296875 668.53125 40.597656 677.945312 47.640625 C 687.371094 54.671875 696.976562 71.015625 700.820312 92.480469 " fill-opacity="1" fill-rule="nonzero"/><path fill="#26285d" d="M 1215.453125 638.273438 C 1215.453125 638.273438 1220.011719 641.054688 1219.921875 642.648438 C 1219.839844 644.242188 1220.433594 665.542969 1218.878906 669.132812 C 1217.34375 672.707031 1152.074219 674.148438 1152.074219 674.148438 C 1152.074219 674.148438 1119.550781 669.695312 1116.507812 665.175781 C 1113.449219 660.65625 1115.199219 657.621094 1117.199219 657.265625 C 1119.183594 656.894531 1197.078125 634.777344 1197.078125 634.777344 L 1215.453125 638.273438 " fill-opacity="1" fill-rule="nonzero"/><path fill="#26285d" d="M 1220.054688 504.136719 L 1219.183594 465.714844 L 1189.667969 479.441406 L 1148.945312 460.460938 C 1148.945312 460.460938 1141.199219 592.277344 1156.246094 646.359375 C 1156.246094 646.359375 1211.929688 660.699219 1219.960938 638.078125 C 1221.382812 634.042969 1220.054688 504.136719 1220.054688 504.136719 " fill-opacity="1" fill-rule="nonzero"/><path fill="#26285d" d="M 1296.292969 363.042969 C 1296.292969 363.042969 1191.488281 410.242188 1149.324219 459.386719 C 1149.324219 459.386719 1158.65625 503.851562 1169.789062 504.28125 C 1169.789062 504.28125 1174.316406 502.695312 1214.921875 501.429688 C 1214.921875 501.429688 1361.53125 434.425781 1365.058594 431.648438 C 1385.886719 415.128906 1377.253906 387.308594 1371.925781 376.480469 C 1354.613281 341.363281 1341.214844 370.59375 1296.292969 363.042969 " fill-opacity="1" fill-rule="nonzero"/><path fill="#26285d" d="M 1407.507812 670.574219 C 1407.507812 670.574219 1423.195312 676.082031 1424.09375 690.054688 C 1425.199219 707.265625 1378.671875 723.183594 1365.925781 722.199219 C 1360.152344 721.742188 1339.496094 725.195312 1330.921875 716.464844 C 1330.921875 716.464844 1341.425781 687.878906 1369.441406 670.308594 C 1391.898438 656.242188 1363.964844 665.617188 1393.207031 654.472656 L 1407.507812 670.574219 " fill-opacity="1" fill-rule="nonzero"/><path fill="#2e3192" d="M 1335.429688 555.664062 L 1295.414062 526 L 1252.660156 520.257812 L 1237.625 526.15625 C 1237.625 526.15625 1260.304688 601.476562 1364.75 683.328125 C 1364.75 683.328125 1438.382812 697.300781 1414.621094 670.308594 C 1394.976562 648.003906 1335.429688 555.664062 1335.429688 555.664062 " fill-opacity="1" fill-rule="nonzero"/><path fill="#2e3192" d="M 1336.257812 349.835938 C 1336.257812 349.835938 1281.910156 350.582031 1237.625 526.15625 C 1237.625 526.15625 1243.757812 548.488281 1274.410156 555.007812 C 1286.96875 557.699219 1283.128906 556.492188 1295.851562 545.667969 C 1295.851562 545.667969 1335.480469 507.511719 1376.875 432.558594 C 1397.121094 395.902344 1375.21875 365.332031 1336.257812 349.835938 " fill-opacity="1" fill-rule="nonzero"/><path fill="#f7981a" d="M 1217.160156 531.519531 L 1217.160156 531.511719 C 1217.140625 531.335938 1217.070312 530.660156 1217.070312 529.566406 C 1217.089844 525.613281 1217.957031 516.433594 1225.347656 505.742188 C 1232.757812 495.070312 1246.84375 482.652344 1274.152344 472.769531 C 1307.484375 460.738281 1324.582031 454.15625 1333.433594 450.546875 C 1337.859375 448.746094 1340.230469 447.695312 1341.613281 447.019531 C 1342.296875 446.683594 1342.746094 446.449219 1343.144531 446.203125 C 1343.347656 446.070312 1343.542969 445.945312 1343.800781 445.753906 L 1344.21875 445.386719 L 1344.492188 445.109375 L 1344.8125 444.71875 C 1346.570312 442.390625 1346.097656 439.078125 1343.757812 437.332031 C 1341.425781 435.582031 1338.117188 436.050781 1336.367188 438.382812 L 1340.445312 441.449219 L 1337.320312 437.414062 C 1337.125 437.566406 1336.839844 437.78125 1336.367188 438.382812 L 1340.445312 441.449219 L 1337.320312 437.414062 L 1339.507812 440.234375 L 1337.625 437.199219 L 1337.320312 437.414062 L 1339.507812 440.234375 L 1337.625 437.199219 L 1338.136719 438.015625 L 1337.644531 437.1875 L 1337.625 437.199219 L 1338.136719 438.015625 L 1337.644531 437.1875 C 1337.644531 437.1875 1337.472656 437.289062 1337.0625 437.484375 C 1335.621094 438.199219 1331.523438 440.019531 1321.570312 443.902344 C 1311.601562 447.785156 1295.738281 453.746094 1270.566406 462.84375 C 1241.703125 473.257812 1225.5 486.964844 1216.671875 499.730469 C 1207.828125 512.476562 1206.5 524.027344 1206.511719 529.566406 C 1206.511719 531.632812 1206.683594 532.878906 1206.726562 533.113281 C 1207.164062 535.996094 1209.855469 537.980469 1212.746094 537.542969 C 1215.628906 537.089844 1217.601562 534.402344 1217.160156 531.519531 " fill-opacity="1" fill-rule="nonzero"/><path fill="#e66f64" d="M 1144.101562 398.152344 C 1144.101562 398.152344 1134.464844 398.273438 1127.433594 406.390625 C 1120.410156 414.496094 1130.773438 409.179688 1152.882812 401.09375 L 1144.101562 398.152344 " fill-opacity="1" fill-rule="nonzero"/><path fill="#e66f64" d="M 1144.234375 399.777344 C 1144.234375 399.777344 1139.238281 402.425781 1132.050781 408.300781 C 1124.847656 414.179688 1124.609375 414.832031 1120.429688 419.175781 C 1117.539062 422.191406 1121.699219 421.660156 1121.953125 421.742188 C 1122.105469 421.792969 1121.410156 421.945312 1122.210938 422.867188 C 1122.71875 423.441406 1124.5 424.257812 1125.519531 424.390625 C 1126.183594 424.472656 1128.453125 424.707031 1129.457031 424.828125 C 1134.199219 425.402344 1143.082031 426.558594 1156.519531 414.730469 C 1156.519531 414.730469 1155.273438 399.816406 1144.234375 399.777344 " fill-opacity="1" fill-rule="nonzero"/><path fill="#bdbcbc" d="M 1244.09375 215.976562 C 1244.09375 215.976562 1250.777344 199.449219 1263.808594 209.015625 C 1293.246094 230.570312 1296.589844 366.269531 1158.371094 417.246094 C 1158.371094 417.246094 1137.703125 406.492188 1145.289062 395.902344 C 1158.011719 378.109375 1189.300781 362.335938 1205.644531 323.390625 C 1213.15625 305.496094 1221.648438 244.351562 1244.09375 215.976562 " fill-opacity="1" fill-rule="nonzero"/><path fill="#2e3192" d="M 1311.304688 87.726562 L 1311.492188 88.023438 C 1313.769531 91.5625 1335.089844 125.78125 1314.476562 140.429688 L 1311.359375 87.828125 " fill-opacity="1" fill-rule="nonzero"/><path fill="#e9e9e9" d="M 1285.253906 195.183594 C 1285.253906 195.183594 1312.378906 188.703125 1336.257812 195.328125 C 1341.183594 196.6875 1345.976562 198.621094 1350.359375 201.265625 C 1350.359375 201.265625 1396.886719 312.648438 1370.320312 368.519531 C 1370.320312 368.519531 1319.351562 405.226562 1274.285156 375.042969 C 1274.285156 375.042969 1228.710938 265.507812 1243.296875 220.585938 C 1243.296875 220.585938 1244.347656 203.371094 1285.253906 195.183594 " fill-opacity="1" fill-rule="nonzero"/><path fill="#e66f64" d="M 1312.378906 149.996094 C 1312.378906 149.996094 1310.039062 180.273438 1311.949219 197.097656 C 1311.949219 197.097656 1300.890625 211.160156 1287.625 202.289062 C 1287.625 202.289062 1275.511719 159.554688 1265.078125 154.523438 C 1254.640625 149.496094 1312.378906 149.996094 1312.378906 149.996094 " fill-opacity="1" fill-rule="nonzero"/><path fill="#f68c82" d="M 1299.859375 89.710938 C 1299.859375 89.710938 1259.835938 86.378906 1243.277344 109.40625 C 1243.277344 109.40625 1244.910156 130.914062 1250.359375 149.332031 C 1255.828125 167.75 1263.472656 184.75 1277.558594 183.257812 C 1277.558594 183.257812 1316.589844 175.070312 1317.195312 147.226562 C 1317.746094 122.152344 1310.191406 94.289062 1299.859375 89.710938 " fill-opacity="1" fill-rule="nonzero"/><path fill="#f68c82" d="M 1309.363281 140.570312 C 1308.515625 148.945312 1311.683594 156.117188 1316.4375 156.589844 C 1321.179688 157.070312 1325.71875 150.671875 1326.554688 142.300781 C 1327.40625 133.9375 1324.234375 126.761719 1319.484375 126.28125 C 1314.742188 125.800781 1310.203125 132.199219 1309.363281 140.570312 " fill-opacity="1" fill-rule="nonzero"/><path fill="#f68c82" d="M 1316.425781 431.390625 C 1316.425781 431.390625 1307.300781 436.257812 1304.53125 448.050781 C 1301.738281 459.835938 1309.058594 449.277344 1326.199219 430.09375 L 1316.425781 431.390625 " fill-opacity="1" fill-rule="nonzero"/><path fill="#f68c82" d="M 1317.328125 432.996094 C 1317.328125 432.996094 1313.851562 438.167969 1309.84375 447.757812 C 1305.816406 457.34375 1305.921875 458.132812 1304.039062 464.664062 C 1302.742188 469.179688 1306.441406 466.585938 1306.726562 466.542969 C 1306.902344 466.523438 1306.308594 467.023438 1307.523438 467.574219 C 1308.28125 467.914062 1310.367188 467.882812 1311.417969 467.503906 C 1312.082031 467.269531 1314.363281 466.398438 1315.363281 466.03125 C 1320.15625 464.273438 1329.183594 461.117188 1336.257812 442.339844 C 1336.257812 442.339844 1327.863281 427.597656 1317.328125 432.996094 " fill-opacity="1" fill-rule="nonzero"/><path fill="#2e3192" d="M 1317.625 116.113281 C 1317.816406 114.894531 1317.917969 113.660156 1317.992188 112.414062 L 1317.765625 112.535156 C 1313.648438 114.457031 1309.273438 116.367188 1304.777344 117.421875 C 1305.070312 119.882812 1305.644531 122.203125 1306.359375 124.308594 C 1308.167969 134.253906 1310.242188 145.980469 1308.863281 152.632812 C 1307.628906 158.53125 1300.972656 163.109375 1292.917969 165.851562 C 1287.808594 160.972656 1264.054688 139.847656 1252.320312 156.753906 L 1252.320312 156.773438 C 1252.167969 156.988281 1252.015625 157.253906 1251.832031 157.683594 C 1249.746094 162.628906 1256.09375 178.023438 1258.75 182.757812 C 1265.546875 194.835938 1302.894531 178.699219 1311.265625 173.464844 C 1319.65625 168.222656 1317.652344 159.746094 1316.4375 156.589844 C 1313.964844 150.199219 1313.453125 142.78125 1313.574219 136.972656 L 1313.585938 137.003906 C 1313.308594 134.625 1316.714844 125.566406 1316.714844 125.566406 L 1317.625 116.113281 " fill-opacity="1" fill-rule="nonzero"/><path fill="#f7981a" d="M 1051.992188 507.550781 L 1049.039062 507.347656 L 1051.992188 507.582031 L 1051.992188 507.550781 L 1049.039062 507.347656 L 1051.992188 507.582031 C 1051.992188 507.582031 1051.992188 507.46875 1052.03125 507.203125 C 1052.289062 505.261719 1053.851562 496.011719 1062.128906 483.195312 C 1070.429688 470.386719 1085.476562 453.941406 1113.011719 437.730469 C 1133.566406 425.636719 1145.523438 418.398438 1152.414062 414.085938 C 1155.867188 411.929688 1158.035156 410.507812 1159.445312 409.519531 C 1160.160156 409.015625 1160.671875 408.640625 1161.160156 408.21875 C 1161.417969 408.003906 1161.652344 407.789062 1162.007812 407.390625 C 1162.195312 407.175781 1162.398438 406.921875 1162.675781 406.453125 C 1162.917969 405.972656 1163.347656 405.265625 1163.378906 403.785156 C 1163.390625 402.976562 1163.164062 401.902344 1162.601562 401.003906 C 1162.195312 400.339844 1161.640625 399.796875 1161.128906 399.441406 C 1160.34375 398.886719 1159.679688 398.695312 1159.179688 398.582031 C 1158.675781 398.480469 1158.308594 398.457031 1158.011719 398.457031 C 1157.257812 398.46875 1156.929688 398.558594 1156.632812 398.621094 C 1156.152344 398.746094 1155.878906 398.847656 1155.609375 398.9375 C 1154.863281 399.226562 1154.324219 399.492188 1154.25 399.519531 C 1151.613281 400.769531 1150.492188 403.917969 1151.746094 406.554688 C 1152.996094 409.191406 1156.144531 410.316406 1158.78125 409.066406 L 1158.289062 408.035156 L 1158.78125 409.066406 L 1158.78125 409.058594 L 1158.289062 408.035156 L 1158.78125 409.066406 L 1159.199219 408.875 L 1159.300781 408.832031 L 1159.3125 408.832031 L 1158.503906 406.441406 L 1159.105469 408.894531 L 1159.3125 408.832031 L 1158.503906 406.441406 L 1159.105469 408.894531 L 1158.011719 404.457031 L 1158.011719 409.015625 C 1158.730469 409.007812 1158.933594 408.925781 1159.105469 408.894531 L 1158.011719 404.457031 L 1158.011719 409.015625 L 1158.011719 403.9375 L 1157.082031 408.933594 C 1157.492188 409.007812 1157.777344 409.015625 1158.011719 409.015625 L 1158.011719 403.9375 L 1157.082031 408.933594 L 1158.042969 403.8125 L 1154.527344 407.65625 C 1155.582031 408.585938 1156.511719 408.8125 1157.082031 408.933594 L 1158.042969 403.8125 L 1154.527344 407.65625 L 1158.0625 403.785156 L 1153.238281 405.839844 C 1153.535156 406.542969 1154.015625 407.199219 1154.527344 407.65625 L 1158.0625 403.785156 L 1153.238281 405.839844 L 1158.054688 403.785156 L 1152.820312 403.785156 C 1152.820312 404.386719 1152.933594 405.121094 1153.238281 405.839844 L 1158.054688 403.785156 L 1152.820312 403.785156 L 1157.972656 403.785156 L 1153.484375 401.238281 C 1153.269531 401.667969 1152.863281 402.332031 1152.820312 403.785156 L 1157.972656 403.785156 L 1153.484375 401.238281 L 1157.289062 403.394531 L 1154.25 400.238281 C 1154.160156 400.359375 1153.964844 400.460938 1153.484375 401.238281 L 1157.289062 403.394531 L 1154.25 400.238281 L 1155.304688 401.339844 L 1154.3125 400.1875 L 1154.25 400.238281 L 1155.304688 401.339844 L 1154.3125 400.1875 C 1154.304688 400.195312 1154.046875 400.402344 1153.628906 400.695312 C 1152.117188 401.78125 1148.445312 404.171875 1141.292969 408.546875 C 1134.136719 412.933594 1123.445312 419.339844 1107.65625 428.632812 C 1076.46875 446.96875 1059.839844 466.144531 1051.101562 480.964844 C 1042.34375 495.785156 1041.496094 506.160156 1041.453125 506.824219 C 1041.257812 509.738281 1043.457031 512.261719 1046.359375 512.457031 C 1049.273438 512.652344 1051.789062 510.453125 1051.992188 507.550781 " fill-opacity="1" fill-rule="nonzero"/><path fill="#fab43d" d="M 1254.316406 131.773438 C 1254.316406 131.773438 1299.441406 131.34375 1323.378906 114.609375 C 1323.378906 114.609375 1323.785156 68.726562 1276.421875 77.230469 C 1276.421875 77.230469 1238.902344 84.160156 1243.277344 120.597656 C 1243.277344 120.597656 1224.867188 126.679688 1224.253906 129.808594 C 1223.640625 132.925781 1238.800781 133.847656 1254.316406 131.773438 " fill-opacity="1" fill-rule="nonzero"/><path fill="#f7981a" d="M 1247.414062 121.109375 C 1247.414062 121.109375 1254.488281 125.167969 1274.449219 124.769531 C 1274.449219 124.769531 1272.761719 78.570312 1299.09375 77.496094 C 1299.09375 77.496094 1295.046875 74.195312 1289.964844 74.144531 C 1287.050781 74.121094 1270.023438 73.703125 1262.644531 80.613281 C 1255.285156 87.535156 1248.640625 102.40625 1247.414062 121.109375 " fill-opacity="1" fill-rule="nonzero"/><path fill="#f68c82" d="M 1263.808594 174.394531 C 1264.074219 174.546875 1277.679688 175.234375 1288.105469 167.761719 C 1288.105469 167.761719 1281.605469 160.832031 1273.242188 160.105469 C 1268.164062 159.664062 1264.871094 158.386719 1261.53125 158.265625 L 1256.613281 162.445312 C 1256.613281 162.445312 1259.945312 172.054688 1263.808594 174.394531 " fill-opacity="1" fill-rule="nonzero"/><path fill="#f7981a" d="M 1155.253906 604.390625 C 1155.253906 604.441406 1158.15625 623.625 1162.550781 645.164062 C 1164.75 655.945312 1167.3125 667.300781 1170.113281 677.214844 C 1171.503906 682.183594 1172.957031 686.785156 1174.480469 690.8125 C 1176.003906 694.839844 1177.546875 698.28125 1179.355469 701.082031 C 1180.070312 702.1875 1180.132812 702.800781 1180.132812 702.882812 L 1180.121094 702.914062 L 1180.140625 702.914062 L 1180.121094 702.914062 L 1180.140625 702.914062 L 1180.121094 702.914062 C 1180.109375 702.933594 1179.988281 703.136719 1179.546875 703.453125 C 1178.894531 703.933594 1177.535156 704.570312 1175.53125 705.007812 C 1173.550781 705.449219 1170.964844 705.722656 1167.917969 705.722656 C 1159.289062 705.734375 1147.054688 703.546875 1133.011719 698.253906 C 1118.949219 692.976562 1103.035156 684.628906 1086.761719 672.433594 C 1084.433594 670.675781 1081.121094 671.15625 1079.375 673.484375 C 1077.625 675.816406 1078.097656 679.128906 1080.4375 680.886719 C 1097.496094 693.671875 1114.269531 702.492188 1129.292969 708.148438 C 1144.335938 713.789062 1157.582031 716.273438 1167.917969 716.28125 C 1173.875 716.273438 1178.875 715.496094 1182.984375 713.613281 C 1185.027344 712.652344 1186.898438 711.375 1188.347656 709.546875 C 1189.808594 707.738281 1190.710938 705.304688 1190.691406 702.882812 C 1190.679688 700.144531 1189.699219 697.617188 1188.214844 695.339844 C 1187.089844 693.613281 1185.710938 690.699219 1184.351562 687.089844 C 1181.960938 680.742188 1179.546875 672.199219 1177.332031 663.070312 C 1174 649.351562 1171.085938 634.257812 1169.011719 622.613281 C 1167.96875 616.789062 1167.140625 611.832031 1166.566406 608.324219 C 1166.28125 606.578125 1166.066406 605.195312 1165.914062 604.246094 C 1165.769531 603.304688 1165.6875 602.804688 1165.6875 602.804688 C 1165.261719 599.921875 1162.5625 597.9375 1159.679688 598.378906 C 1156.796875 598.808594 1154.8125 601.507812 1155.253906 604.390625 " fill-opacity="1" fill-rule="nonzero"/><path fill="#f7981a" d="M 1116.792969 581.882812 C 1116.800781 581.933594 1119.707031 601.109375 1124.101562 622.65625 C 1126.296875 633.429688 1128.863281 644.785156 1131.652344 654.699219 C 1133.054688 659.65625 1134.503906 664.253906 1136.019531 668.28125 C 1137.539062 672.320312 1139.09375 675.753906 1140.902344 678.566406 C 1141.609375 679.660156 1141.671875 680.273438 1141.671875 680.363281 L 1141.671875 680.394531 L 1141.679688 680.394531 L 1141.671875 680.386719 L 1141.671875 680.394531 L 1141.679688 680.394531 L 1141.671875 680.386719 C 1141.648438 680.414062 1141.535156 680.609375 1141.085938 680.9375 C 1140.445312 681.40625 1139.074219 682.050781 1137.082031 682.480469 C 1135.085938 682.929688 1132.5 683.207031 1129.457031 683.207031 C 1120.839844 683.214844 1108.59375 681.019531 1094.5625 675.734375 C 1080.496094 670.449219 1064.582031 662.109375 1048.320312 649.914062 C 1045.980469 648.167969 1042.679688 648.636719 1040.933594 650.976562 C 1039.183594 653.308594 1039.65625 656.621094 1041.984375 658.367188 C 1059.054688 671.15625 1075.816406 679.976562 1090.839844 685.617188 C 1105.875 691.261719 1119.132812 693.753906 1129.457031 693.765625 C 1135.414062 693.746094 1140.414062 692.976562 1144.523438 691.085938 C 1146.574219 690.136719 1148.4375 688.847656 1149.886719 687.019531 C 1151.347656 685.21875 1152.25 682.777344 1152.226562 680.363281 C 1152.21875 677.625 1151.238281 675.101562 1149.753906 672.8125 C 1148.628906 671.09375 1147.25 668.179688 1145.902344 664.5625 C 1143.507812 658.214844 1141.097656 649.679688 1138.878906 640.550781 C 1135.546875 626.835938 1132.625 611.738281 1130.550781 600.097656 C 1129.507812 594.28125 1128.679688 589.324219 1128.105469 585.816406 C 1127.820312 584.070312 1127.605469 582.679688 1127.453125 581.738281 C 1127.308594 580.789062 1127.226562 580.296875 1127.226562 580.296875 C 1126.796875 577.414062 1124.109375 575.433594 1121.21875 575.859375 C 1118.335938 576.300781 1116.351562 578.988281 1116.792969 581.882812 " fill-opacity="1" fill-rule="nonzero"/><path fill="#fab43d" d="M 1220.625 525.859375 L 1240.414062 525.859375 L 1129.875 670.175781 L 1034.390625 726.167969 L 894.671875 686.949219 L 828.378906 576.914062 L 1014.960938 501.214844 L 1220.625 525.859375 " fill-opacity="1" fill-rule="nonzero"/><path fill="#f7981a" d="M 872.929688 650.84375 L 876.683594 743.011719 L 898.503906 743.011719 L 894.792969 688.492188 L 872.929688 650.84375 " fill-opacity="1" fill-rule="nonzero"/><path fill="#26285d" d="M 979.585938 751.371094 C 974.8125 783.773438 947.226562 809.992188 907.457031 809.992188 C 867.6875 809.992188 841.214844 780.523438 841.214844 743.011719 C 841.214844 705.507812 872.808594 676.050781 912.589844 676.050781 C 952.367188 676.050781 986.21875 706.449219 979.585938 751.371094 " fill-opacity="1" fill-rule="nonzero"/><path fill="#2e3192" d="M 975.558594 756.066406 C 974.324219 776.824219 948.382812 802.867188 920.089844 802.867188 C 887.996094 802.867188 868.761719 781.730469 868.761719 749.644531 C 868.761719 717.558594 889.304688 693.785156 921.386719 693.785156 C 953.472656 693.785156 977.828125 718.316406 975.558594 756.066406 " fill-opacity="1" fill-rule="nonzero"/><path fill="#f7981a" d="M 828.378906 576.914062 L 1046.726562 634.777344 L 1237.625 526.15625 L 1027.277344 478.929688 L 828.378906 576.914062 " fill-opacity="1" fill-rule="nonzero"/><path fill="#fab43d" d="M 948.382812 746.199219 C 948.382812 759.980469 937.210938 771.152344 923.441406 771.152344 C 909.675781 771.152344 898.503906 759.980469 898.503906 746.199219 C 898.503906 732.441406 909.675781 721.269531 923.441406 721.269531 C 937.210938 721.269531 948.382812 732.441406 948.382812 746.199219 " fill-opacity="1" fill-rule="nonzero"/><path fill="#fab43d" d="M 919.335938 736.246094 L 1021.226562 682.328125 L 1034.390625 726.167969 L 927.480469 753.507812 L 919.335938 736.246094 " fill-opacity="1" fill-rule="nonzero"/><path fill="#2e3192" d="M 1332.035156 281.636719 C 1350.890625 333.972656 1365.425781 311.636719 1365.425781 311.636719 C 1365.425781 311.636719 1381.839844 373.355469 1381.277344 375.050781 C 1380.71875 376.75 1296.722656 401.996094 1274.285156 375.042969 C 1274.285156 375.042969 1244.0625 312.058594 1243.277344 289.652344 C 1242.507812 267.234375 1236.019531 231.921875 1256.613281 202.382812 L 1270.332031 198.527344 C 1270.332031 198.527344 1250.839844 222.191406 1256.613281 281.636719 L 1312.378906 274.839844 C 1312.378906 274.839844 1297.804688 220.839844 1320.015625 192.648438 L 1332.035156 192.34375 C 1332.035156 192.34375 1314.484375 232.941406 1332.035156 281.636719 " fill-opacity="1" fill-rule="nonzero"/><path fill="#e9e9e9" d="M 1329.296875 224.777344 C 1329.296875 224.777344 1337.871094 188.46875 1350.359375 201.265625 C 1440.027344 293.207031 1398.960938 395.300781 1335.4375 448.238281 C 1335.4375 448.238281 1323.777344 448.910156 1316.140625 436.339844 C 1308.453125 423.664062 1363.472656 316.984375 1363.472656 316.984375 C 1346.496094 291.308594 1330.871094 266.019531 1329.296875 224.777344 " fill-opacity="1" fill-rule="nonzero"/></svg>